<svg id="Grupo_145930" data-name="Grupo 145930" xmlns="http://www.w3.org/2000/svg" xmlns:xlink="http://www.w3.org/1999/xlink" width="229.099" height="191.091" viewBox="0 0 229.099 191.091">
  <defs>
    <clipPath id="clip-path">
      <rect id="Rectángulo_39176" data-name="Rectángulo 39176" width="229.099" height="191.091" fill="none"/>
    </clipPath>
    <clipPath id="clip-path-3">
      <rect id="Rectángulo_39165" data-name="Rectángulo 39165" width="89.938" height="89.938" fill="none"/>
    </clipPath>
    <clipPath id="clip-path-4">
      <rect id="Rectángulo_39166" data-name="Rectángulo 39166" width="74.162" height="74.163" fill="none"/>
    </clipPath>
  </defs>
  <g id="Grupo_145940" data-name="Grupo 145940" clip-path="url(#clip-path)">
    <rect id="Rectángulo_39163" data-name="Rectángulo 39163" width="123.59" height="123.59" fill="#ffca28"/>
    <g id="Grupo_145937" data-name="Grupo 145937">
      <g id="Grupo_145936" data-name="Grupo 145936" clip-path="url(#clip-path)">
        <rect id="Rectángulo_39164" data-name="Rectángulo 39164" width="128.086" height="123.771" transform="translate(86.595 64.844)" fill="none" stroke="#ffca28" stroke-width="1"/>
        <g id="Grupo_145932" data-name="Grupo 145932" transform="translate(10.009 48.641)" opacity="0.3" style="mix-blend-mode: multiply;isolation: isolate">
          <g id="Grupo_145931" data-name="Grupo 145931">
            <g id="Grupo_145930-2" data-name="Grupo 145930" clip-path="url(#clip-path-3)">
              <path id="Trazado_186687" data-name="Trazado 186687" d="M63.6,122.378l.451-9.685a2.454,2.454,0,0,1,.08-.98,32.618,32.618,0,0,0,6.215-3.171,2.456,2.456,0,0,1,2.172.389l8.634,4.415a2.042,2.042,0,0,0,2.862-.383h0l5.931-7.765a2.041,2.041,0,0,0-.383-2.862l-6.53-7.167a2.44,2.44,0,0,1-.638-.753,32.754,32.754,0,0,0,2.155-6.633,2.458,2.458,0,0,1,1.809-1.262l9.227-2.983a2.042,2.042,0,0,0,1.753-2.3l-1.3-9.685a2.042,2.042,0,0,0-2.3-1.753l-9.685-.451a2.432,2.432,0,0,1-.98-.08A32.618,32.618,0,0,0,79.91,63.06a2.448,2.448,0,0,1,.389-2.171l4.415-8.635a2.041,2.041,0,0,0-.383-2.862l-7.765-5.931a2.045,2.045,0,0,0-2.864.383l-7.166,6.532a2.477,2.477,0,0,1-.753.638,32.67,32.67,0,0,0-6.633-2.155,2.455,2.455,0,0,1-1.262-1.811L54.9,37.822a2.042,2.042,0,0,0-2.3-1.753l-9.685,1.3a2.042,2.042,0,0,0-1.753,2.3l-.451,9.685a2.459,2.459,0,0,1-.08.981A32.613,32.613,0,0,0,34.427,53.5a2.451,2.451,0,0,1-2.171-.387l-8.635-4.415a2.041,2.041,0,0,0-2.862.383l-5.931,7.765a2.045,2.045,0,0,0,.383,2.863l6.532,7.166a2.482,2.482,0,0,1,.638.754,32.642,32.642,0,0,0-2.155,6.633,2.459,2.459,0,0,1-1.811,1.26L9.188,78.5a2.043,2.043,0,0,0-1.751,2.3l1.3,9.685a2.042,2.042,0,0,0,2.3,1.753l9.685.451a2.452,2.452,0,0,1,.98.08,32.7,32.7,0,0,0,3.171,6.215,2.451,2.451,0,0,1-.389,2.172l-4.415,8.634a2.041,2.041,0,0,0,.385,2.862l7.765,5.931a2.044,2.044,0,0,0,2.863-.383l7.166-6.53a2.429,2.429,0,0,1,.754-.638,32.8,32.8,0,0,0,6.632,2.155,2.453,2.453,0,0,1,1.262,1.809l2.983,9.227a2.043,2.043,0,0,0,2.3,1.753l9.685-1.3a2.04,2.04,0,0,0,1.753-2.3M38.468,82.884A14.043,14.043,0,1,1,54.251,94.938,14.044,14.044,0,0,1,38.468,82.884" transform="translate(-7.418 -36.051)" fill="#025a82"/>
            </g>
          </g>
        </g>
        <g id="Grupo_145935" data-name="Grupo 145935" transform="translate(154.937 36.396)" opacity="0.3" style="mix-blend-mode: multiply;isolation: isolate">
          <g id="Grupo_145934" data-name="Grupo 145934">
            <g id="Grupo_145933" data-name="Grupo 145933" clip-path="url(#clip-path-4)">
              <path id="Trazado_186688" data-name="Trazado 186688" d="M161.163,98.161l.371-7.986a2,2,0,0,1,.066-.808,26.822,26.822,0,0,0,5.124-2.615,2.023,2.023,0,0,1,1.79.321l7.12,3.64a1.684,1.684,0,0,0,2.36-.317l4.891-6.4a1.684,1.684,0,0,0-.317-2.36l-5.385-5.91a2.04,2.04,0,0,1-.526-.621,26.924,26.924,0,0,0,1.777-5.47,2.028,2.028,0,0,1,1.492-1.04l7.608-2.46a1.683,1.683,0,0,0,1.446-1.892l-1.07-7.987a1.685,1.685,0,0,0-1.893-1.445l-7.986-.371a2,2,0,0,1-.808-.066,26.821,26.821,0,0,0-2.615-5.124,2.023,2.023,0,0,1,.321-1.79l3.64-7.12a1.685,1.685,0,0,0-.316-2.36l-6.4-4.891a1.685,1.685,0,0,0-2.36.316l-5.91,5.386a2.04,2.04,0,0,1-.621.526,26.924,26.924,0,0,0-5.47-1.777,2.023,2.023,0,0,1-1.039-1.492l-2.461-7.608A1.684,1.684,0,0,0,152.1,26.99l-7.987,1.07a1.685,1.685,0,0,0-1.445,1.893l-.371,7.986a2.027,2.027,0,0,1-.065.808,26.874,26.874,0,0,0-5.126,2.615,2.027,2.027,0,0,1-1.79-.321l-7.12-3.64a1.684,1.684,0,0,0-2.36.317l-4.891,6.4a1.684,1.684,0,0,0,.317,2.36l5.385,5.91a2.025,2.025,0,0,1,.526.621,26.924,26.924,0,0,0-1.777,5.47A2.023,2.023,0,0,1,123.9,59.52l-7.608,2.461a1.682,1.682,0,0,0-1.445,1.892l1.069,7.986a1.686,1.686,0,0,0,1.893,1.446l7.986.371a1.975,1.975,0,0,1,.808.066,26.9,26.9,0,0,0,2.615,5.124,2.023,2.023,0,0,1-.321,1.79l-3.64,7.12a1.684,1.684,0,0,0,.317,2.36l6.4,4.891a1.684,1.684,0,0,0,2.36-.317l5.91-5.385a2.041,2.041,0,0,1,.621-.526,26.923,26.923,0,0,0,5.47,1.777,2.023,2.023,0,0,1,1.039,1.492l2.461,7.608a1.684,1.684,0,0,0,1.892,1.446l7.988-1.071a1.683,1.683,0,0,0,1.445-1.892M140.437,65.594a11.58,11.58,0,1,1,13.015,9.94,11.58,11.58,0,0,1-13.015-9.94" transform="translate(-114.833 -26.975)" fill="#025a82"/>
            </g>
          </g>
        </g>
      </g>
    </g>
    <path id="Trazado_186689" data-name="Trazado 186689" d="M135.063,172.658H47.316V10.853H168.629V139.09Z" transform="translate(16.525 3.79)" fill="#fff"/>
    <path id="Trazado_186690" data-name="Trazado 186690" d="M112.345,105.891h33.574l-33.574,33.576Z" transform="translate(39.235 36.981)" fill="#fff"/>
    <rect id="Rectángulo_39168" data-name="Rectángulo 39168" width="56.13" height="10.695" transform="translate(96.433 27.391)" fill="#0b3360"/>
    <rect id="Rectángulo_39169" data-name="Rectángulo 39169" width="56.13" height="8.894" transform="translate(96.433 68.217)" fill="#0b3360"/>
    <rect id="Rectángulo_39170" data-name="Rectángulo 39170" width="56.13" height="8.894" transform="translate(96.433 48.254)" fill="#0b3360"/>
    <rect id="Rectángulo_39171" data-name="Rectángulo 39171" width="22.467" height="10.314" transform="translate(76.569 123.25)" fill="#0b3360"/>
    <rect id="Rectángulo_39172" data-name="Rectángulo 39172" width="22.467" height="10.314" transform="translate(76.569 148.644)" fill="#0b3360"/>
    <rect id="Rectángulo_39173" data-name="Rectángulo 39173" width="22.467" height="10.314" transform="translate(148.261 123.25)" fill="#0b3360"/>
    <rect id="Rectángulo_39174" data-name="Rectángulo 39174" width="22.451" height="22.451" transform="translate(108.622 102.943) rotate(-45)" fill="#0b3360"/>
    <g id="Grupo_145939" data-name="Grupo 145939">
      <g id="Grupo_145938" data-name="Grupo 145938" clip-path="url(#clip-path)">
        <path id="Trazado_186691" data-name="Trazado 186691" d="M92.438,89.676a1,1,0,0,1-1.005-1V24.523a1.005,1.005,0,0,1,2.01,0V88.672a1,1,0,0,1-1.005,1" transform="translate(31.932 8.214)" fill="#0b3360"/>
        <path id="Trazado_186692" data-name="Trazado 186692" d="M138.473,77.562H65.337a1.005,1.005,0,1,1,0-2.01h73.137a1.005,1.005,0,1,1,0,2.01" transform="translate(22.466 26.386)" fill="#0b3360"/>
        <path id="Trazado_186693" data-name="Trazado 186693" d="M65.337,128.421a1,1,0,0,1-1.007-1.005V76.557a1.005,1.005,0,1,1,2.01,0v50.858a1,1,0,0,1-1,1.005" transform="translate(22.466 26.386)" fill="#0b3360"/>
        <path id="Trazado_186694" data-name="Trazado 186694" d="M119.542,103.941a1,1,0,0,1-1.005-1.005V76.557a1.005,1.005,0,1,1,2.01,0v26.379a1,1,0,0,1-1.005,1.005" transform="translate(41.398 26.386)" fill="#0b3360"/>
      </g>
    </g>
  </g>
</svg>
