<svg id="Grupo_145923" data-name="Grupo 145923" xmlns="http://www.w3.org/2000/svg" xmlns:xlink="http://www.w3.org/1999/xlink" width="170.707" height="170.707" viewBox="0 0 170.707 170.707">
  <defs>
    <clipPath id="clip-path">
      <rect id="Rectángulo_39133" data-name="Rectángulo 39133" width="170.707" height="170.707" fill="none"/>
    </clipPath>
  </defs>
  <rect id="Rectángulo_39119" data-name="Rectángulo 39119" width="108.632" height="108.632" transform="translate(0 0)" fill="#ffca28"/>
  <rect id="Rectángulo_39120" data-name="Rectángulo 39120" width="96.993" height="96.993" transform="translate(71.775 71.775)" fill="none" stroke="#ffca28" stroke-width="1"/>
  <path id="Trazado_186534" data-name="Trazado 186534" d="M13.892,98.254l-.005-3.243,16.9-7.976,0,3.2Z" transform="translate(-1.658 -10.394)" fill="#fff"/>
  <rect id="Rectángulo_39121" data-name="Rectángulo 39121" width="16.707" height="3.243" transform="translate(12.229 84.63) rotate(-0.093)" fill="#024563"/>
  <path id="Trazado_186535" data-name="Trazado 186535" d="M30.6,95.011H13.887l16.9-7.975Z" transform="translate(-1.658 -10.394)" fill="#025a82"/>
  <path id="Trazado_186536" data-name="Trazado 186536" d="M18.13,101.617l0-3.255h52.9l-.005,3.255Z" transform="translate(-2.165 -11.747)" fill="#fff"/>
  <path id="Trazado_186537" data-name="Trazado 186537" d="M18.006,104.3l0-3.267H71.125l0,3.267Z" transform="translate(-2.15 -12.067)" fill="#024563"/>
  <path id="Trazado_186538" data-name="Trazado 186538" d="M71.125,100.717H18l.109-2.354h52.9Z" transform="translate(-2.15 -11.747)" fill="#025a82"/>
  <path id="Trazado_186539" data-name="Trazado 186539" d="M17.87,107.246l0-3.282H71.228l0,3.282Z" transform="translate(-2.134 -12.416)" fill="#fff"/>
  <path id="Trazado_186540" data-name="Trazado 186540" d="M71.325,106.36H17.739l.112-2.4H71.213Z" transform="translate(-2.118 -12.416)" fill="#025a82"/>
  <path id="Trazado_186541" data-name="Trazado 186541" d="M17.744,109.979l0-3.3H71.325l0,3.3Z" transform="translate(-2.119 -12.741)" fill="#024563"/>
  <path id="Trazado_186542" data-name="Trazado 186542" d="M17.605,112.968l0-3.309H71.43l0,3.309Z" transform="translate(-2.102 -13.096)" fill="#fff"/>
  <path id="Trazado_186543" data-name="Trazado 186543" d="M17.476,115.755l-.005-3.323H71.528l-.005,3.323Z" transform="translate(-2.087 -13.427)" fill="#024563"/>
  <path id="Trazado_186544" data-name="Trazado 186544" d="M71.529,112.1H17.472l.114-2.442H71.415Z" transform="translate(-2.087 -13.096)" fill="#025a82"/>
  <path id="Trazado_186545" data-name="Trazado 186545" d="M17.335,118.8l-.005-3.337h54.3l0,3.337Z" transform="translate(-2.07 -13.789)" fill="#fff"/>
  <path id="Trazado_186546" data-name="Trazado 186546" d="M71.736,117.944H17.2l.116-2.486h54.3Z" transform="translate(-2.054 -13.789)" fill="#025a82"/>
  <path id="Trazado_186547" data-name="Trazado 186547" d="M17.2,121.632l-.005-3.351H71.735l0,3.351Z" transform="translate(-2.054 -14.126)" fill="#024563"/>
  <path id="Trazado_186548" data-name="Trazado 186548" d="M17.061,124.728l-.005-3.366H71.844l0,3.366Z" transform="translate(-2.037 -14.494)" fill="#fff"/>
  <path id="Trazado_186549" data-name="Trazado 186549" d="M16.927,127.615l-.005-3.381H71.947l-.005,3.381Z" transform="translate(-2.021 -14.837)" fill="#024463"/>
  <path id="Trazado_186550" data-name="Trazado 186550" d="M71.946,123.892H16.923l.117-2.531H71.828Z" transform="translate(-2.021 -14.494)" fill="#025a82"/>
  <path id="Trazado_186551" data-name="Trazado 186551" d="M16.782,130.766l-.005-3.4H72.057l0,3.4Z" transform="translate(-2.004 -15.212)" fill="#fff"/>
  <path id="Trazado_186552" data-name="Trazado 186552" d="M72.161,129.941H16.64l.12-2.57H72.041Z" transform="translate(-1.987 -15.211)" fill="#025a82"/>
  <path id="Trazado_186553" data-name="Trazado 186553" d="M16.646,133.7l-.005-3.41h55.52l-.005,3.41Z" transform="translate(-1.987 -15.56)" fill="#024463"/>
  <path id="Trazado_186554" data-name="Trazado 186554" d="M11.614,132.595l2-37.585H30.324l.19-7.975H73.561l2.427,45.56ZM71.2,117.262H16.407l-.118,2.531H71.312Zm-.242-5.2h-54.3l-.115,2.486H71.069Zm-.238-5.107H16.886l-.114,2.442H70.829Zm-.233-5.014H17.119l-.112,2.4H70.594Zm.959,20.611H16.16l-.12,2.571h55.52ZM70.253,97.01h-52.9l-.109,2.354H70.362Z" transform="translate(-1.387 -10.394)" fill="#55d6d2"/>
  <path id="Trazado_186555" data-name="Trazado 186555" d="M11.62,142.225l-.006-3.451H75.987l-.006,3.451Z" transform="translate(-1.387 -16.573)" fill="#fff"/>
  <path id="Trazado_186556" data-name="Trazado 186556" d="M13.892,89.666l-.005-3.243,16.9-7.976,0,3.2Z" transform="translate(-1.658 -9.369)" fill="#fff"/>
  <rect id="Rectángulo_39122" data-name="Rectángulo 39122" width="16.707" height="3.243" transform="translate(12.229 77.068) rotate(-0.093)" fill="#024563"/>
  <path id="Trazado_186557" data-name="Trazado 186557" d="M30.6,86.423H13.887l16.9-7.976Z" transform="translate(-1.658 -9.369)" fill="#025a82"/>
  <path id="Trazado_186558" data-name="Trazado 186558" d="M18.13,93.029l0-3.255h52.9l-.005,3.255Z" transform="translate(-2.165 -10.722)" fill="#fff"/>
  <path id="Trazado_186559" data-name="Trazado 186559" d="M18.006,95.716l0-3.268H71.125l0,3.268Z" transform="translate(-2.15 -11.041)" fill="#024563"/>
  <path id="Trazado_186560" data-name="Trazado 186560" d="M71.125,92.129H18l.109-2.354h52.9Z" transform="translate(-2.15 -10.722)" fill="#025a82"/>
  <path id="Trazado_186561" data-name="Trazado 186561" d="M17.87,98.658l0-3.282H71.228l0,3.282Z" transform="translate(-2.134 -11.39)" fill="#fff"/>
  <path id="Trazado_186562" data-name="Trazado 186562" d="M71.325,97.772H17.739l.112-2.4H71.213Z" transform="translate(-2.118 -11.391)" fill="#025a82"/>
  <path id="Trazado_186563" data-name="Trazado 186563" d="M17.744,101.391l0-3.3H71.325l0,3.3Z" transform="translate(-2.119 -11.715)" fill="#024563"/>
  <path id="Trazado_186564" data-name="Trazado 186564" d="M17.605,104.38l0-3.309H71.43l0,3.309Z" transform="translate(-2.102 -12.071)" fill="#fff"/>
  <path id="Trazado_186565" data-name="Trazado 186565" d="M17.476,107.167l-.005-3.323H71.528l-.005,3.323Z" transform="translate(-2.087 -12.402)" fill="#024563"/>
  <path id="Trazado_186566" data-name="Trazado 186566" d="M71.529,103.512H17.472l.114-2.443H71.415Z" transform="translate(-2.087 -12.07)" fill="#025a82"/>
  <path id="Trazado_186567" data-name="Trazado 186567" d="M17.335,110.208l-.005-3.337h54.3l0,3.337Z" transform="translate(-2.07 -12.763)" fill="#fff"/>
  <path id="Trazado_186568" data-name="Trazado 186568" d="M71.736,109.356H17.2l.116-2.486h54.3Z" transform="translate(-2.054 -12.763)" fill="#025a82"/>
  <path id="Trazado_186569" data-name="Trazado 186569" d="M17.2,113.044l-.005-3.351H71.735l0,3.351Z" transform="translate(-2.054 -13.1)" fill="#024563"/>
  <path id="Trazado_186570" data-name="Trazado 186570" d="M17.061,116.14l-.005-3.366H71.844l0,3.366Z" transform="translate(-2.037 -13.468)" fill="#fff"/>
  <path id="Trazado_186571" data-name="Trazado 186571" d="M16.927,119.027l-.005-3.381H71.947l-.005,3.381Z" transform="translate(-2.021 -13.811)" fill="#024463"/>
  <path id="Trazado_186572" data-name="Trazado 186572" d="M71.946,115.3H16.923l.117-2.531H71.828Z" transform="translate(-2.021 -13.468)" fill="#025a82"/>
  <path id="Trazado_186573" data-name="Trazado 186573" d="M16.782,122.178l-.005-3.4H72.057l0,3.4Z" transform="translate(-2.004 -14.186)" fill="#fff"/>
  <path id="Trazado_186574" data-name="Trazado 186574" d="M72.161,121.353H16.64l.12-2.57H72.041Z" transform="translate(-1.987 -14.186)" fill="#025a82"/>
  <path id="Trazado_186575" data-name="Trazado 186575" d="M16.646,125.112l-.005-3.41h55.52l-.005,3.41Z" transform="translate(-1.987 -14.534)" fill="#024463"/>
  <path id="Trazado_186576" data-name="Trazado 186576" d="M11.614,124.007l2-37.585H30.324l.19-7.975H73.561l2.427,45.56ZM71.2,108.674H16.407l-.118,2.531H71.312Zm-.242-5.2h-54.3l-.115,2.486H71.069Zm-.238-5.107H16.886l-.114,2.443H70.829Zm-.233-5.014H17.119l-.112,2.4H70.594Zm.959,20.611H16.16l-.12,2.571h55.52ZM70.253,88.422h-52.9l-.109,2.354H70.362Z" transform="translate(-1.387 -9.369)" fill="#55d6d2"/>
  <path id="Trazado_186577" data-name="Trazado 186577" d="M11.62,133.637l-.006-3.452H75.987l-.006,3.452Z" transform="translate(-1.387 -15.548)" fill="#fff"/>
  <path id="Trazado_186578" data-name="Trazado 186578" d="M13.892,81.078l-.005-3.243,16.9-7.975,0,3.2Z" transform="translate(-1.658 -8.343)" fill="#fff"/>
  <rect id="Rectángulo_39123" data-name="Rectángulo 39123" width="16.707" height="3.243" transform="translate(12.229 69.505) rotate(-0.093)" fill="#024563"/>
  <path id="Trazado_186579" data-name="Trazado 186579" d="M30.6,77.835H13.887l16.9-7.976Z" transform="translate(-1.658 -8.343)" fill="#025a82"/>
  <path id="Trazado_186580" data-name="Trazado 186580" d="M18.13,84.441l0-3.255h52.9l-.005,3.255Z" transform="translate(-2.165 -9.696)" fill="#fff"/>
  <path id="Trazado_186581" data-name="Trazado 186581" d="M18.006,87.127l0-3.268H71.125l0,3.268Z" transform="translate(-2.15 -10.015)" fill="#024563"/>
  <path id="Trazado_186582" data-name="Trazado 186582" d="M71.125,83.541H18l.109-2.354h52.9Z" transform="translate(-2.15 -9.696)" fill="#025a82"/>
  <path id="Trazado_186583" data-name="Trazado 186583" d="M17.87,90.07l0-3.282H71.228l0,3.282Z" transform="translate(-2.134 -10.365)" fill="#fff"/>
  <path id="Trazado_186584" data-name="Trazado 186584" d="M71.325,89.183H17.739l.112-2.4H71.213Z" transform="translate(-2.118 -10.365)" fill="#025a82"/>
  <path id="Trazado_186585" data-name="Trazado 186585" d="M17.744,92.8l0-3.3H71.325l0,3.3Z" transform="translate(-2.119 -10.69)" fill="#024563"/>
  <path id="Trazado_186586" data-name="Trazado 186586" d="M17.605,95.791l0-3.309H71.43l0,3.309Z" transform="translate(-2.102 -11.045)" fill="#fff"/>
  <path id="Trazado_186587" data-name="Trazado 186587" d="M17.476,98.578l-.005-3.323H71.528l-.005,3.323Z" transform="translate(-2.087 -11.376)" fill="#024563"/>
  <path id="Trazado_186588" data-name="Trazado 186588" d="M71.529,94.924H17.472l.114-2.443H71.415Z" transform="translate(-2.087 -11.045)" fill="#025a82"/>
  <path id="Trazado_186589" data-name="Trazado 186589" d="M17.335,101.62l-.005-3.337h54.3l0,3.337Z" transform="translate(-2.07 -11.738)" fill="#fff"/>
  <path id="Trazado_186590" data-name="Trazado 186590" d="M71.736,100.767H17.2l.116-2.486h54.3Z" transform="translate(-2.054 -11.737)" fill="#025a82"/>
  <path id="Trazado_186591" data-name="Trazado 186591" d="M17.2,104.456,17.2,101.1H71.735l0,3.351Z" transform="translate(-2.054 -12.075)" fill="#024563"/>
  <path id="Trazado_186592" data-name="Trazado 186592" d="M17.061,107.552l-.005-3.366H71.844l0,3.366Z" transform="translate(-2.037 -12.443)" fill="#fff"/>
  <path id="Trazado_186593" data-name="Trazado 186593" d="M16.927,110.439l-.005-3.381H71.947l-.005,3.381Z" transform="translate(-2.021 -12.786)" fill="#024463"/>
  <path id="Trazado_186594" data-name="Trazado 186594" d="M71.946,106.715H16.923l.117-2.53H71.828Z" transform="translate(-2.021 -12.443)" fill="#025a82"/>
  <path id="Trazado_186595" data-name="Trazado 186595" d="M16.782,113.59l-.005-3.4H72.057l0,3.4Z" transform="translate(-2.004 -13.16)" fill="#fff"/>
  <path id="Trazado_186596" data-name="Trazado 186596" d="M72.161,112.765H16.64l.12-2.57H72.041Z" transform="translate(-1.987 -13.16)" fill="#025a82"/>
  <path id="Trazado_186597" data-name="Trazado 186597" d="M16.646,116.523l-.005-3.41h55.52l-.005,3.41Z" transform="translate(-1.987 -13.509)" fill="#024463"/>
  <path id="Trazado_186598" data-name="Trazado 186598" d="M11.614,115.419l2-37.585H30.324l.19-7.975H73.561l2.427,45.56ZM71.2,100.086H16.407l-.118,2.531H71.312Zm-.242-5.2h-54.3l-.115,2.486H71.069Zm-.238-5.107H16.886l-.114,2.442H70.829Zm-.233-5.014H17.119l-.112,2.4H70.594Zm.959,20.611H16.16l-.12,2.571h55.52ZM70.253,79.834h-52.9l-.109,2.354H70.362Z" transform="translate(-1.387 -8.343)" fill="#55d6d2"/>
  <path id="Trazado_186599" data-name="Trazado 186599" d="M11.62,125.049l-.006-3.451H75.987l-.006,3.451Z" transform="translate(-1.387 -14.522)" fill="#fff"/>
  <path id="Trazado_186600" data-name="Trazado 186600" d="M13.892,72.49l-.005-3.243,16.9-7.976,0,3.2Z" transform="translate(-1.658 -7.317)" fill="#fff"/>
  <rect id="Rectángulo_39124" data-name="Rectángulo 39124" width="16.707" height="3.243" transform="translate(12.229 61.943) rotate(-0.093)" fill="#024563"/>
  <path id="Trazado_186601" data-name="Trazado 186601" d="M30.6,69.246H13.887l16.9-7.975Z" transform="translate(-1.658 -7.317)" fill="#025a82"/>
  <path id="Trazado_186602" data-name="Trazado 186602" d="M18.13,75.853l0-3.255h52.9l-.005,3.255Z" transform="translate(-2.165 -8.67)" fill="#fff"/>
  <path id="Trazado_186603" data-name="Trazado 186603" d="M18.006,78.539l0-3.267H71.125l0,3.267Z" transform="translate(-2.15 -8.99)" fill="#024563"/>
  <path id="Trazado_186604" data-name="Trazado 186604" d="M71.125,74.953H18l.109-2.354h52.9Z" transform="translate(-2.15 -8.67)" fill="#025a82"/>
  <path id="Trazado_186605" data-name="Trazado 186605" d="M17.87,81.482l0-3.282H71.228l0,3.282Z" transform="translate(-2.134 -9.339)" fill="#fff"/>
  <path id="Trazado_186606" data-name="Trazado 186606" d="M71.325,80.6H17.739l.112-2.4H71.213Z" transform="translate(-2.118 -9.339)" fill="#025a82"/>
  <path id="Trazado_186607" data-name="Trazado 186607" d="M17.744,84.215l0-3.3H71.325l0,3.3Z" transform="translate(-2.119 -9.664)" fill="#024563"/>
  <path id="Trazado_186608" data-name="Trazado 186608" d="M17.605,87.2l0-3.309H71.43l0,3.309Z" transform="translate(-2.102 -10.019)" fill="#fff"/>
  <path id="Trazado_186609" data-name="Trazado 186609" d="M17.476,89.99l-.005-3.323H71.528l-.005,3.323Z" transform="translate(-2.087 -10.35)" fill="#024563"/>
  <path id="Trazado_186610" data-name="Trazado 186610" d="M71.529,86.336H17.472l.114-2.443H71.415Z" transform="translate(-2.087 -10.019)" fill="#025a82"/>
  <path id="Trazado_186611" data-name="Trazado 186611" d="M17.335,93.031l-.005-3.337h54.3l0,3.337Z" transform="translate(-2.07 -10.712)" fill="#fff"/>
  <path id="Trazado_186612" data-name="Trazado 186612" d="M71.736,92.179H17.2l.116-2.486h54.3Z" transform="translate(-2.054 -10.712)" fill="#025a82"/>
  <path id="Trazado_186613" data-name="Trazado 186613" d="M17.2,95.868,17.2,92.517H71.735l0,3.351Z" transform="translate(-2.054 -11.049)" fill="#024563"/>
  <path id="Trazado_186614" data-name="Trazado 186614" d="M17.061,98.963,17.056,95.6H71.844l0,3.366Z" transform="translate(-2.037 -11.417)" fill="#fff"/>
  <path id="Trazado_186615" data-name="Trazado 186615" d="M16.927,101.851l-.005-3.381H71.947l-.005,3.381Z" transform="translate(-2.021 -11.76)" fill="#024463"/>
  <path id="Trazado_186616" data-name="Trazado 186616" d="M71.946,98.127H16.923L17.04,95.6H71.828Z" transform="translate(-2.021 -11.417)" fill="#025a82"/>
  <path id="Trazado_186617" data-name="Trazado 186617" d="M16.782,105l-.005-3.4H72.057l0,3.4Z" transform="translate(-2.004 -12.135)" fill="#fff"/>
  <path id="Trazado_186618" data-name="Trazado 186618" d="M72.161,104.177H16.64l.12-2.57H72.041Z" transform="translate(-1.987 -12.135)" fill="#025a82"/>
  <path id="Trazado_186619" data-name="Trazado 186619" d="M16.646,107.935l-.005-3.41h55.52l-.005,3.41Z" transform="translate(-1.987 -12.483)" fill="#024463"/>
  <path id="Trazado_186620" data-name="Trazado 186620" d="M11.614,106.831l2-37.585H30.324l.19-7.975H73.561l2.427,45.56ZM71.2,91.5H16.407l-.118,2.531H71.312Zm-.242-5.2h-54.3l-.115,2.486H71.069Zm-.238-5.107H16.886l-.114,2.443H70.829Zm-.233-5.014H17.119l-.112,2.4H70.594Zm.959,20.612H16.16l-.12,2.57h55.52ZM70.253,71.246h-52.9L17.239,73.6H70.362Z" transform="translate(-1.387 -7.317)" fill="#55d6d2"/>
  <path id="Trazado_186621" data-name="Trazado 186621" d="M11.62,116.461l-.006-3.451H75.987l-.006,3.451Z" transform="translate(-1.387 -13.496)" fill="#fff"/>
  <path id="Trazado_186622" data-name="Trazado 186622" d="M13.892,63.9l-.005-3.243,16.9-7.976,0,3.2Z" transform="translate(-1.658 -6.292)" fill="#fff"/>
  <rect id="Rectángulo_39125" data-name="Rectángulo 39125" width="16.707" height="3.243" transform="translate(12.229 54.38) rotate(-0.093)" fill="#024563"/>
  <path id="Trazado_186623" data-name="Trazado 186623" d="M30.6,60.658H13.887l16.9-7.976Z" transform="translate(-1.658 -6.292)" fill="#025a82"/>
  <path id="Trazado_186624" data-name="Trazado 186624" d="M18.13,67.265l0-3.255h52.9l-.005,3.255Z" transform="translate(-2.165 -7.645)" fill="#fff"/>
  <path id="Trazado_186625" data-name="Trazado 186625" d="M18.006,69.951l0-3.268H71.125l0,3.268Z" transform="translate(-2.15 -7.964)" fill="#024563"/>
  <path id="Trazado_186626" data-name="Trazado 186626" d="M71.125,66.364H18l.109-2.354h52.9Z" transform="translate(-2.15 -7.645)" fill="#025a82"/>
  <path id="Trazado_186627" data-name="Trazado 186627" d="M17.87,72.894l0-3.282H71.228l0,3.282Z" transform="translate(-2.134 -8.314)" fill="#fff"/>
  <path id="Trazado_186628" data-name="Trazado 186628" d="M71.325,72.007H17.739l.112-2.4H71.213Z" transform="translate(-2.118 -8.314)" fill="#025a82"/>
  <path id="Trazado_186629" data-name="Trazado 186629" d="M17.744,75.627l0-3.3H71.325l0,3.3Z" transform="translate(-2.119 -8.638)" fill="#024563"/>
  <path id="Trazado_186630" data-name="Trazado 186630" d="M17.605,78.615l0-3.309H71.43l0,3.309Z" transform="translate(-2.102 -8.994)" fill="#fff"/>
  <path id="Trazado_186631" data-name="Trazado 186631" d="M17.476,81.4l-.005-3.323H71.528L71.523,81.4Z" transform="translate(-2.087 -9.325)" fill="#024563"/>
  <path id="Trazado_186632" data-name="Trazado 186632" d="M71.529,77.748H17.472l.114-2.443H71.415Z" transform="translate(-2.087 -8.993)" fill="#025a82"/>
  <path id="Trazado_186633" data-name="Trazado 186633" d="M17.335,84.443l-.005-3.337h54.3l0,3.337Z" transform="translate(-2.07 -9.686)" fill="#fff"/>
  <path id="Trazado_186634" data-name="Trazado 186634" d="M71.736,83.591H17.2l.116-2.486h54.3Z" transform="translate(-2.054 -9.686)" fill="#025a82"/>
  <path id="Trazado_186635" data-name="Trazado 186635" d="M17.2,87.28,17.2,83.929H71.735l0,3.351Z" transform="translate(-2.054 -10.023)" fill="#024563"/>
  <path id="Trazado_186636" data-name="Trazado 186636" d="M17.061,90.375l-.005-3.366H71.844l0,3.366Z" transform="translate(-2.037 -10.391)" fill="#fff"/>
  <path id="Trazado_186637" data-name="Trazado 186637" d="M16.927,93.263l-.005-3.381H71.947l-.005,3.381Z" transform="translate(-2.021 -10.734)" fill="#024463"/>
  <path id="Trazado_186638" data-name="Trazado 186638" d="M71.946,89.539H16.923l.117-2.53H71.828Z" transform="translate(-2.021 -10.391)" fill="#025a82"/>
  <path id="Trazado_186639" data-name="Trazado 186639" d="M16.782,96.414l-.005-3.4H72.057l0,3.4Z" transform="translate(-2.004 -11.109)" fill="#fff"/>
  <path id="Trazado_186640" data-name="Trazado 186640" d="M72.161,95.589H16.64l.12-2.57H72.041Z" transform="translate(-1.987 -11.109)" fill="#025a82"/>
  <path id="Trazado_186641" data-name="Trazado 186641" d="M16.646,99.347l-.005-3.41h55.52l-.005,3.41Z" transform="translate(-1.987 -11.457)" fill="#024463"/>
  <path id="Trazado_186642" data-name="Trazado 186642" d="M11.614,98.243l2-37.585H30.324l.19-7.975H73.561l2.427,45.56ZM71.2,82.91H16.407l-.118,2.531H71.312Zm-.242-5.2h-54.3L16.533,80.2H71.069ZM70.715,72.6H16.886l-.114,2.442H70.829Zm-.233-5.014H17.119l-.112,2.4H70.594ZM71.441,88.2H16.16l-.12,2.571h55.52ZM70.253,62.658h-52.9l-.109,2.354H70.362Z" transform="translate(-1.387 -6.292)" fill="#55d6d2"/>
  <path id="Trazado_186643" data-name="Trazado 186643" d="M11.62,107.873l-.006-3.452H75.987l-.006,3.452Z" transform="translate(-1.387 -12.471)" fill="#fff"/>
  <rect id="Rectángulo_39126" data-name="Rectángulo 39126" width="1.943" height="2.915" transform="translate(41.442 122.722)" fill="#0b3360"/>
  <path id="Trazado_186644" data-name="Trazado 186644" d="M49.006,166.319H47.063V160.6h1.943Zm0-11.435H47.063v-5.718h1.943Z" transform="translate(-5.621 -17.814)" fill="#0b3360"/>
  <path id="Trazado_186645" data-name="Trazado 186645" d="M50.949,179.024H47.063v-3.886h1.943v1.943h1.943Z" transform="translate(-5.621 -20.916)" fill="#0b3360"/>
  <path id="Trazado_186646" data-name="Trazado 186646" d="M118.857,179.287H113.3v-1.943h5.552Zm-11.1,0H102.2v-1.943h5.552Zm-11.1,0H91.1v-1.943h5.552Zm-11.107,0H79.99v-1.943h5.552Zm-11.1,0H68.886v-1.943h5.552Zm-11.1,0H57.782v-1.943h5.552Z" transform="translate(-6.901 -21.18)" fill="#0b3360"/>
  <path id="Trazado_186647" data-name="Trazado 186647" d="M137.332,179.024h-3.886V177.08h1.943v-1.943h1.943Z" transform="translate(-15.937 -20.916)" fill="#0b3360"/>
  <rect id="Rectángulo_39127" data-name="Rectángulo 39127" width="1.943" height="4.826" transform="translate(119.452 144.571)" fill="#0b3360"/>
  <rect id="Rectángulo_39128" data-name="Rectángulo 39128" width="1.943" height="2.915" transform="translate(119.452 136.832)" fill="#0b3360"/>
  <path id="Trazado_186648" data-name="Trazado 186648" d="M140.942,155.862l-4.843-8.389-4.845,8.389Z" transform="translate(-15.675 -17.612)" fill="#0b3360"/>
  <rect id="Rectángulo_39129" data-name="Rectángulo 39129" width="1.943" height="2.915" transform="translate(119.452 38.421)" fill="#0b3360"/>
  <rect id="Rectángulo_39130" data-name="Rectángulo 39130" width="1.943" height="6.239" transform="translate(119.452 25.942)" fill="#0b3360"/>
  <path id="Trazado_186649" data-name="Trazado 186649" d="M137.332,21.848h-1.943V19.9h-1.943V17.962h3.886Z" transform="translate(-15.937 -2.145)" fill="#0b3360"/>
  <path id="Trazado_186650" data-name="Trazado 186650" d="M118.857,19.9H113.3V17.961h5.552Zm-11.1,0H102.2V17.961h5.552Zm-11.1,0H91.1V17.961h5.552Zm-11.107,0H79.99V17.961h5.552Zm-11.1,0H68.886V17.961h5.552Zm-11.1,0H57.782V17.961h5.552Z" transform="translate(-6.901 -2.145)" fill="#0b3360"/>
  <path id="Trazado_186651" data-name="Trazado 186651" d="M49.006,21.848H47.063V17.962H50.95V19.9H49.006Z" transform="translate(-5.621 -2.145)" fill="#0b3360"/>
  <rect id="Rectángulo_39131" data-name="Rectángulo 39131" width="1.943" height="4.826" transform="translate(41.442 24.526)" fill="#0b3360"/>
  <rect id="Rectángulo_39132" data-name="Rectángulo 39132" width="1.943" height="2.915" transform="translate(41.442 34.175)" fill="#0b3360"/>
  <path id="Trazado_186652" data-name="Trazado 186652" d="M42.665,40.511,47.508,48.9l4.845-8.389Z" transform="translate(-5.095 -4.838)" fill="#0b3360"/>
  <g id="Grupo_145922" data-name="Grupo 145922" transform="translate(0 0)">
    <g id="Grupo_145921" data-name="Grupo 145921" clip-path="url(#clip-path)">
      <path id="Trazado_186653" data-name="Trazado 186653" d="M99.061,115.193v10.761c0,8.906,14.859,16.134,33.2,16.134s33.189-7.228,33.189-16.134V115.193Z" transform="translate(-11.831 -13.757)" fill="#025a82"/>
      <path id="Trazado_186654" data-name="Trazado 186654" d="M165.446,113c0,8.912-14.856,16.136-33.188,16.136s-33.2-7.223-33.2-16.136,14.859-16.138,33.2-16.138,33.188,7.228,33.188,16.138" transform="translate(-11.831 -11.568)" fill="#023f61"/>
      <path id="Trazado_186655" data-name="Trazado 186655" d="M99.061,100.393v10.761c0,8.906,14.859,16.134,33.2,16.134s33.189-7.228,33.189-16.134V100.393Z" transform="translate(-11.831 -11.99)" fill="#025a82"/>
      <path id="Trazado_186656" data-name="Trazado 186656" d="M165.446,98.2c0,8.912-14.856,16.136-33.188,16.136s-33.2-7.223-33.2-16.136,14.859-16.138,33.2-16.138,33.188,7.229,33.188,16.138" transform="translate(-11.831 -9.801)" fill="#023f61"/>
      <path id="Trazado_186657" data-name="Trazado 186657" d="M99.061,85.592V96.353c0,8.905,14.859,16.134,33.2,16.134s33.189-7.229,33.189-16.134V85.592Z" transform="translate(-11.831 -10.222)" fill="#025a82"/>
      <path id="Trazado_186658" data-name="Trazado 186658" d="M165.446,83.4c0,8.912-14.856,16.136-33.188,16.136s-33.2-7.223-33.2-16.136,14.859-16.138,33.2-16.138,33.188,7.228,33.188,16.138" transform="translate(-11.831 -8.033)" fill="#023f61"/>
      <path id="Trazado_186659" data-name="Trazado 186659" d="M99.061,70.792V81.553c0,8.905,14.859,16.134,33.2,16.134s33.189-7.229,33.189-16.134V70.792Z" transform="translate(-11.831 -8.454)" fill="#025a82"/>
      <path id="Trazado_186660" data-name="Trazado 186660" d="M165.446,68.6c0,8.912-14.856,16.136-33.188,16.136s-33.2-7.223-33.2-16.136,14.859-16.138,33.2-16.138,33.188,7.228,33.188,16.138" transform="translate(-11.831 -6.266)" fill="#023f61"/>
      <path id="Trazado_186661" data-name="Trazado 186661" d="M99.061,55.992V66.753c0,8.906,14.859,16.134,33.2,16.134s33.189-7.228,33.189-16.134V55.992Z" transform="translate(-11.831 -6.687)" fill="#025a82"/>
      <path id="Trazado_186662" data-name="Trazado 186662" d="M165.446,53.8c0,8.912-14.856,16.136-33.188,16.136s-33.2-7.223-33.2-16.136,14.859-16.138,33.2-16.138,33.188,7.228,33.188,16.138" transform="translate(-11.831 -4.498)" fill="#023f61"/>
    </g>
  </g>
</svg>
