<svg xmlns="http://www.w3.org/2000/svg" xmlns:xlink="http://www.w3.org/1999/xlink" width="81.036" height="90.05" viewBox="0 0 81.036 90.05">
  <defs>
    <clipPath id="clip-path">
      <rect id="Rectángulo_39372" data-name="Rectángulo 39372" width="81.036" height="90.05" transform="translate(0 0)" fill="none"/>
    </clipPath>
  </defs>
  <g id="Grupo_146216" data-name="Grupo 146216" transform="translate(0 0)">
    <g id="Grupo_146215" data-name="Grupo 146215" clip-path="url(#clip-path)">
      <path id="Trazado_188547" data-name="Trazado 188547" d="M74.44,88.591H6.595a5.277,5.277,0,0,1-5.277-5.276v-7.34l78.4-14.247V83.315a5.276,5.276,0,0,1-5.276,5.276" fill="#cdbfba"/>
      <path id="Trazado_188548" data-name="Trazado 188548" d="M60.086,83.315H6.6A5.285,5.285,0,0,1,1.319,78.03V12.493A5.286,5.286,0,0,1,6.6,7.207H74.431a5.286,5.286,0,0,1,5.285,5.286V63.684c0,1.4-3.195,2.746-4.186,3.738L63.823,79.129C62.832,80.12,61.488,83.315,60.086,83.315Z" fill="#f9f3f1"/>
      <path id="Trazado_188549" data-name="Trazado 188549" d="M53.734,83.315H57.92a4.33,4.33,0,0,0,4.33-4.33V70.179a4.331,4.331,0,0,1,4.331-4.33h8.805a4.33,4.33,0,0,0,4.33-4.33V63.66A5.28,5.28,0,0,1,78.168,67.4L63.8,81.767a5.285,5.285,0,0,1-3.737,1.548Z" fill="#efe2dd"/>
      <path id="Trazado_188550" data-name="Trazado 188550" d="M79.716,12.483V26.057H1.319V12.483A5.277,5.277,0,0,1,6.6,7.207H74.44a5.276,5.276,0,0,1,5.276,5.276" fill="#ffecb1"/>
      <path id="Trazado_188551" data-name="Trazado 188551" d="M16.255,16.416H13.666A4.016,4.016,0,0,1,9.654,12.4v-5.2h2.638v5.2a1.374,1.374,0,0,0,1.374,1.372c.728,0,3.317,2.639,2.589,2.639" fill="#fdb441"/>
      <path id="Trazado_188552" data-name="Trazado 188552" d="M64.175,16.416h-2.59a4.015,4.015,0,0,1-4.01-4.01v-5.2h2.638v5.2a1.374,1.374,0,0,0,1.372,1.372c.73,0,2.59,1.911,2.59,2.639" fill="#fdb441"/>
      <path id="Trazado_188553" data-name="Trazado 188553" d="M16.771,42.764H10.49a1.256,1.256,0,0,1-1.257-1.256V35.226A1.256,1.256,0,0,1,10.49,33.97h6.281a1.256,1.256,0,0,1,1.256,1.256v6.282a1.256,1.256,0,0,1-1.256,1.256" fill="#ffecb1"/>
      <path id="Trazado_188554" data-name="Trazado 188554" d="M34.7,42.764H28.415a1.256,1.256,0,0,1-1.257-1.256V35.226a1.256,1.256,0,0,1,1.257-1.256H34.7a1.256,1.256,0,0,1,1.256,1.256v6.282A1.256,1.256,0,0,1,34.7,42.764" fill="#ffecb1"/>
      <path id="Trazado_188555" data-name="Trazado 188555" d="M52.621,42.764H46.34a1.256,1.256,0,0,1-1.257-1.256V35.226A1.256,1.256,0,0,1,46.34,33.97h6.281a1.256,1.256,0,0,1,1.256,1.256v6.282a1.256,1.256,0,0,1-1.256,1.256" fill="#ffecb1"/>
      <path id="Trazado_188556" data-name="Trazado 188556" d="M70.546,42.764H64.265a1.256,1.256,0,0,1-1.257-1.256V35.226a1.256,1.256,0,0,1,1.257-1.256h6.281A1.256,1.256,0,0,1,71.8,35.226v6.282a1.256,1.256,0,0,1-1.256,1.256" fill="#ffecb1"/>
      <path id="Trazado_188557" data-name="Trazado 188557" d="M16.771,59.081H10.49a1.256,1.256,0,0,1-1.257-1.256V51.543a1.256,1.256,0,0,1,1.257-1.256h6.281a1.256,1.256,0,0,1,1.256,1.256v6.282a1.256,1.256,0,0,1-1.256,1.256" fill="#ffecb1"/>
      <path id="Trazado_188558" data-name="Trazado 188558" d="M34.7,59.081H28.415a1.256,1.256,0,0,1-1.257-1.256V51.543a1.256,1.256,0,0,1,1.257-1.256H34.7a1.256,1.256,0,0,1,1.256,1.256v6.282A1.256,1.256,0,0,1,34.7,59.081" fill="#ffecb1"/>
      <path id="Trazado_188559" data-name="Trazado 188559" d="M52.621,59.081H46.34a1.256,1.256,0,0,1-1.257-1.256V51.543a1.256,1.256,0,0,1,1.257-1.256h6.281a1.256,1.256,0,0,1,1.256,1.256v6.282a1.256,1.256,0,0,1-1.256,1.256" fill="#ffecb1"/>
      <path id="Trazado_188560" data-name="Trazado 188560" d="M70.546,59.472H64.265a1.256,1.256,0,0,1-1.257-1.256V51.934a1.256,1.256,0,0,1,1.257-1.256h6.281A1.256,1.256,0,0,1,71.8,51.934v6.282a1.256,1.256,0,0,1-1.256,1.256" fill="#ffecb1"/>
      <path id="Trazado_188561" data-name="Trazado 188561" d="M16.771,75.4H10.49a1.256,1.256,0,0,1-1.257-1.256V67.859A1.256,1.256,0,0,1,10.49,66.6h6.281a1.256,1.256,0,0,1,1.256,1.256v6.282A1.256,1.256,0,0,1,16.771,75.4" fill="#ffecb1"/>
      <path id="Trazado_188562" data-name="Trazado 188562" d="M34.7,75.4H28.415a1.256,1.256,0,0,1-1.257-1.256V67.859A1.256,1.256,0,0,1,28.415,66.6H34.7a1.256,1.256,0,0,1,1.256,1.256v6.282A1.256,1.256,0,0,1,34.7,75.4" fill="#ffecb1"/>
      <path id="Trazado_188563" data-name="Trazado 188563" d="M52.621,75.4H46.34a1.256,1.256,0,0,1-1.257-1.256V67.859A1.256,1.256,0,0,1,46.34,66.6h6.281a1.256,1.256,0,0,1,1.256,1.256v6.282A1.256,1.256,0,0,1,52.621,75.4" fill="#ffecb1"/>
      <path id="Trazado_188564" data-name="Trazado 188564" d="M64.265,44.225h6.281a2.578,2.578,0,0,0,2.575-2.575V35.369a2.578,2.578,0,0,0-2.575-2.576H64.265a2.579,2.579,0,0,0-2.576,2.576V41.65a2.579,2.579,0,0,0,2.576,2.575m.062-8.794h6.156v6.156H64.327Zm-.062,25.5h6.281a2.579,2.579,0,0,0,2.575-2.576V52.077A2.578,2.578,0,0,0,70.546,49.5H64.265a2.579,2.579,0,0,0-2.576,2.575v6.281a2.579,2.579,0,0,0,2.576,2.576m.062-8.794h6.156V58.3H64.327ZM46.34,44.225h6.281A2.578,2.578,0,0,0,55.2,41.65V35.369a2.578,2.578,0,0,0-2.575-2.576H46.34a2.579,2.579,0,0,0-2.576,2.576V41.65a2.579,2.579,0,0,0,2.576,2.575m.062-8.794h6.156v6.156H46.4Zm-29.631,30H10.49A2.579,2.579,0,0,0,7.914,68v6.282a2.579,2.579,0,0,0,2.576,2.575h6.281a2.579,2.579,0,0,0,2.576-2.575V68a2.579,2.579,0,0,0-2.576-2.575m-.063,8.794H10.552V68.065h6.156Zm.063-41.428H10.49a2.579,2.579,0,0,0-2.576,2.576V41.65a2.579,2.579,0,0,0,2.576,2.575h6.281a2.579,2.579,0,0,0,2.576-2.575V35.369a2.579,2.579,0,0,0-2.576-2.576m-.063,8.794H10.552V35.431h6.156ZM46.34,60.542h6.281A2.578,2.578,0,0,0,55.2,57.967V51.685a2.578,2.578,0,0,0-2.575-2.575H46.34a2.579,2.579,0,0,0-2.576,2.575v6.282a2.579,2.579,0,0,0,2.576,2.575m.062-8.794h6.156V57.9H46.4Zm28.03-45.72h-5.64V4.011A4.016,4.016,0,0,0,64.78,0h-.6a4.015,4.015,0,0,0-4.011,4.011V6.028H20.872V4.011A4.015,4.015,0,0,0,16.861,0h-.606a4.015,4.015,0,0,0-4.011,4.011V6.028H6.6a6.611,6.611,0,0,0-6.6,6.6V83.455a6.6,6.6,0,0,0,6.595,6.6H74.441a6.6,6.6,0,0,0,6.6-6.6V12.632A6.611,6.611,0,0,0,74.432,6.028ZM62.8,4.011a1.375,1.375,0,0,1,1.373-1.373h.606a1.375,1.375,0,0,1,1.373,1.373V6.028H62.8Zm-47.92,0a1.375,1.375,0,0,1,1.373-1.373h.606a1.375,1.375,0,0,1,1.373,1.373V6.028H14.882ZM78.4,83.455a3.962,3.962,0,0,1-3.958,3.957H6.595a3.961,3.961,0,0,1-3.957-3.957v-.009A6.568,6.568,0,0,0,6.6,84.774H60.086a6.559,6.559,0,0,0,4.67-1.935L78.4,69.2Zm-14.988-3a5.612,5.612,0,0,0,.16-1.33V70.319a3.014,3.014,0,0,1,3.011-3.011h8.805a5.666,5.666,0,0,0,1.331-.16ZM78.4,24.879H22.191a1.319,1.319,0,1,0,0,2.638H78.4V61.658a3.015,3.015,0,0,1-3.012,3.012H66.581a5.655,5.655,0,0,0-5.649,5.649v8.805a3.015,3.015,0,0,1-3.012,3.012H6.6a3.971,3.971,0,0,1-3.966-3.967V27.517H16.915a1.319,1.319,0,0,0,0-2.638H2.638V12.632A3.97,3.97,0,0,1,6.6,8.666h5.64v3.878a4.016,4.016,0,0,0,4.011,4.012,1.319,1.319,0,1,0,0-2.638,1.375,1.375,0,0,1-1.373-1.374V8.666H60.164v3.878a4.016,4.016,0,0,0,4.011,4.012,1.319,1.319,0,1,0,0-2.638A1.375,1.375,0,0,1,62.8,12.544V8.666h11.63A3.97,3.97,0,0,1,78.4,12.632ZM16.771,49.11H10.49a2.579,2.579,0,0,0-2.576,2.575v6.282a2.579,2.579,0,0,0,2.576,2.575h6.281a2.579,2.579,0,0,0,2.576-2.575V51.685a2.579,2.579,0,0,0-2.576-2.575M16.708,57.9H10.552V51.748h6.156ZM28.415,44.225H34.7a2.579,2.579,0,0,0,2.576-2.575V35.369A2.579,2.579,0,0,0,34.7,32.793H28.415a2.579,2.579,0,0,0-2.576,2.576V41.65a2.579,2.579,0,0,0,2.576,2.575m.063-8.794h6.156v6.156H28.478ZM46.4,74.221a1.319,1.319,0,0,0-2.637.063,2.578,2.578,0,0,0,2.576,2.575h6.281A2.578,2.578,0,0,0,55.2,74.284V68a2.578,2.578,0,0,0-2.575-2.575H46.34A2.578,2.578,0,0,0,43.764,68v1.812a1.319,1.319,0,1,0,2.638,0V68.065h6.156v6.156ZM28.415,60.542H34.7a2.579,2.579,0,0,0,2.576-2.575V51.685A2.579,2.579,0,0,0,34.7,49.11H28.415a2.579,2.579,0,0,0-2.576,2.575v6.282a2.579,2.579,0,0,0,2.576,2.575m.063-8.794h6.156V57.9H28.478Zm-.063,25.111H34.7a2.579,2.579,0,0,0,2.576-2.575V68A2.579,2.579,0,0,0,34.7,65.427H28.415A2.579,2.579,0,0,0,25.839,68v6.282a2.579,2.579,0,0,0,2.576,2.575m.063-8.794h6.156v6.156H28.478Z" fill="#09394c"/>
    </g>
  </g>
</svg>
