<svg id="Grupo_146203" data-name="Grupo 146203" xmlns="http://www.w3.org/2000/svg" xmlns:xlink="http://www.w3.org/1999/xlink" width="108.713" height="98.006" viewBox="0 0 108.713 98.006">
  <defs>
    <clipPath id="clip-path">
      <rect id="Rectángulo_39364" data-name="Rectángulo 39364" width="108.713" height="98.006" transform="translate(0 0)" fill="none"/>
    </clipPath>
  </defs>
  <g id="Grupo_146202" data-name="Grupo 146202" clip-path="url(#clip-path)">
    <path id="Trazado_188465" data-name="Trazado 188465" d="M92.326,15.073H11.358L1.6,22.239v50.8a7.83,7.83,0,0,0,7.831,7.831h81.5a7.227,7.227,0,0,0,7.228-7.226v-51.4Z" fill="#f9f7f8"/>
    <path id="Trazado_188466" data-name="Trazado 188466" d="M82.213,41.277A30.231,30.231,0,0,0,53.469,80.866h37.46a7.227,7.227,0,0,0,7.228-7.225V45.835A30.045,30.045,0,0,0,82.213,41.277Z" fill="#efedef"/>
    <path id="Trazado_188467" data-name="Trazado 188467" d="M82.213,46.6a24.9,24.9,0,1,1-24.9,24.9,24.9,24.9,0,0,1,24.9-24.9" fill="#ffca28"/>
    <path id="Trazado_188468" data-name="Trazado 188468" d="M64.827,71.506a24.907,24.907,0,0,1,21.144-24.62,24.9,24.9,0,1,0,0,49.24A24.907,24.907,0,0,1,64.827,71.506Z" fill="#e2af23"/>
    <path id="Trazado_188469" data-name="Trazado 188469" d="M18.2,39.918H13.463a2.1,2.1,0,0,1-2.1-2.1V33.075a2.1,2.1,0,0,1,2.1-2.105H18.2a2.105,2.105,0,0,1,2.1,2.105v4.738a2.105,2.105,0,0,1-2.1,2.1" fill="#0f5ca8"/>
    <path id="Trazado_188470" data-name="Trazado 188470" d="M35.146,39.918H30.407a2.1,2.1,0,0,1-2.1-2.1V33.075a2.1,2.1,0,0,1,2.1-2.105h4.739a2.105,2.105,0,0,1,2.1,2.105v4.738a2.105,2.105,0,0,1-2.1,2.1" fill="#d4f2f6"/>
    <path id="Trazado_188471" data-name="Trazado 188471" d="M52.09,39.918H47.351a2.1,2.1,0,0,1-2.1-2.1V33.075a2.1,2.1,0,0,1,2.1-2.105H52.09a2.105,2.105,0,0,1,2.1,2.105v4.738a2.105,2.105,0,0,1-2.1,2.1" fill="#d4f2f6"/>
    <path id="Trazado_188472" data-name="Trazado 188472" d="M69.035,39.918h-4.74a2.1,2.1,0,0,1-2.1-2.1V33.075a2.1,2.1,0,0,1,2.1-2.105h4.74a2.1,2.1,0,0,1,2.1,2.105v4.738a2.106,2.106,0,0,1-2.1,2.1" fill="#d4f2f6"/>
    <path id="Trazado_188473" data-name="Trazado 188473" d="M85.979,39.918H81.24a2.1,2.1,0,0,1-2.1-2.1V33.075a2.1,2.1,0,0,1,2.1-2.105h4.739a2.105,2.105,0,0,1,2.105,2.105v4.738a2.105,2.105,0,0,1-2.105,2.1" fill="#d4f2f6"/>
    <path id="Trazado_188474" data-name="Trazado 188474" d="M18.2,56.061H13.463a2.1,2.1,0,0,1-2.1-2.1V49.218a2.1,2.1,0,0,1,2.1-2.1H18.2a2.105,2.105,0,0,1,2.1,2.1v4.738a2.105,2.105,0,0,1-2.1,2.1" fill="#0f5ca8"/>
    <path id="Trazado_188475" data-name="Trazado 188475" d="M35.146,56.061H30.407a2.1,2.1,0,0,1-2.1-2.1V49.218a2.1,2.1,0,0,1,2.1-2.1h4.739a2.105,2.105,0,0,1,2.1,2.1v4.738a2.105,2.105,0,0,1-2.1,2.1" fill="#d4f2f6"/>
    <path id="Trazado_188476" data-name="Trazado 188476" d="M52.09,56.061H47.351a2.1,2.1,0,0,1-2.1-2.1V49.218a2.1,2.1,0,0,1,2.1-2.1H52.09a2.105,2.105,0,0,1,2.1,2.1v4.738a2.105,2.105,0,0,1-2.1,2.1" fill="#d4f2f6"/>
    <path id="Trazado_188477" data-name="Trazado 188477" d="M18.2,72.2H13.463a2.1,2.1,0,0,1-2.1-2.105V65.361a2.1,2.1,0,0,1,2.1-2.1H18.2a2.105,2.105,0,0,1,2.1,2.1V70.1A2.105,2.105,0,0,1,18.2,72.2" fill="#0f5ca8"/>
    <path id="Trazado_188478" data-name="Trazado 188478" d="M35.146,72.2H30.407A2.1,2.1,0,0,1,28.3,70.1V65.361a2.1,2.1,0,0,1,2.1-2.1h4.739a2.105,2.105,0,0,1,2.1,2.1V70.1a2.105,2.105,0,0,1-2.1,2.105" fill="#d4f2f6"/>
    <path id="Trazado_188479" data-name="Trazado 188479" d="M17.582,73.035v-50.8l9.76-7.166H11.358L1.6,22.239v50.8a7.83,7.83,0,0,0,7.831,7.831H25.413a7.83,7.83,0,0,1-7.831-7.831" fill="#efedef"/>
    <path id="Trazado_188480" data-name="Trazado 188480" d="M13.463,72.2h4.119V63.256H13.463a2.105,2.105,0,0,0-2.105,2.1V70.1A2.105,2.105,0,0,0,13.463,72.2Z" fill="#1565c0"/>
    <path id="Trazado_188481" data-name="Trazado 188481" d="M13.463,56.061h4.119V47.113H13.463a2.105,2.105,0,0,0-2.105,2.1v4.738a2.105,2.105,0,0,0,2.105,2.1" fill="#1565c0"/>
    <path id="Trazado_188482" data-name="Trazado 188482" d="M13.463,39.918h4.119V30.97H13.463a2.105,2.105,0,0,0-2.105,2.105v4.738a2.105,2.105,0,0,0,2.105,2.1" fill="#1565c0"/>
    <path id="Trazado_188483" data-name="Trazado 188483" d="M98.157,15.953v6.071H1.6V15.953A7.832,7.832,0,0,1,9.429,8.122h80.9a7.833,7.833,0,0,1,7.831,7.831" fill="#d4f2f6"/>
    <path id="Trazado_188484" data-name="Trazado 188484" d="M25.413,8.122H9.429A7.831,7.831,0,0,0,1.6,15.953v6.07H17.582v-6.07a7.832,7.832,0,0,1,7.831-7.831" fill="#a6e7f0"/>
    <path id="Trazado_188485" data-name="Trazado 188485" d="M49.877,15.08a3.3,3.3,0,0,1-3.3-3.3V4.9a3.3,3.3,0,1,1,6.6,0v6.877a3.3,3.3,0,0,1-3.3,3.3" fill="#efedef"/>
    <path id="Trazado_188486" data-name="Trazado 188486" d="M36.079,15.08a3.3,3.3,0,0,1-3.3-3.3V4.9a3.3,3.3,0,1,1,6.6,0v6.877a3.3,3.3,0,0,1-3.3,3.3" fill="#efedef"/>
    <path id="Trazado_188487" data-name="Trazado 188487" d="M22.28,15.08a3.3,3.3,0,0,1-3.3-3.3V4.9a3.3,3.3,0,1,1,6.6,0v6.877a3.3,3.3,0,0,1-3.3,3.3" fill="#efedef"/>
    <path id="Trazado_188488" data-name="Trazado 188488" d="M63.676,15.08a3.3,3.3,0,0,0,3.3-3.3V4.9a3.3,3.3,0,1,0-6.6,0v6.877a3.3,3.3,0,0,0,3.3,3.3" fill="#efedef"/>
    <path id="Trazado_188489" data-name="Trazado 188489" d="M77.475,15.08a3.3,3.3,0,0,0,3.3-3.3V4.9a3.3,3.3,0,1,0-6.6,0v6.877a3.3,3.3,0,0,0,3.3,3.3" fill="#efedef"/>
    <path id="Trazado_188490" data-name="Trazado 188490" d="M82.213,67.463a4.042,4.042,0,1,1-4.043,4.043,4.043,4.043,0,0,1,4.043-4.043" fill="#e2af23"/>
    <path id="Trazado_188491" data-name="Trazado 188491" d="M52.349,79.269H9.429A6.241,6.241,0,0,1,3.2,73.036v-49.2H13.828a1.6,1.6,0,0,0,0-3.2H3.2V16.171A6.241,6.241,0,0,1,9.429,9.938H17.38v1.84a4.9,4.9,0,0,0,9.8,0V9.938h4v1.84a4.9,4.9,0,0,0,9.8,0V9.938h4v1.84a4.9,4.9,0,0,0,9.8,0V9.938h4v1.84a4.9,4.9,0,0,0,9.8,0V9.938h4v1.84a4.9,4.9,0,0,0,9.8,0V9.938h7.95a6.24,6.24,0,0,1,6.233,6.233v4.471H20.638a1.6,1.6,0,1,0,0,3.2H96.559V44.589a1.6,1.6,0,0,0,3.2,0V16.17a9.44,9.44,0,0,0-9.429-9.429H82.375V4.9a4.9,4.9,0,1,0-9.8,0v1.84h-4V4.9a4.9,4.9,0,1,0-9.8,0v1.84h-4V4.9a4.9,4.9,0,0,0-9.8,0v1.84h-4V4.9a4.9,4.9,0,1,0-9.8,0v1.84h-4V4.9a4.9,4.9,0,0,0-9.8,0v1.84H9.429A9.44,9.44,0,0,0,0,16.17V73.036a9.44,9.44,0,0,0,9.429,9.43h42.92a1.6,1.6,0,0,0,0-3.2ZM75.771,4.9a1.7,1.7,0,1,1,3.408,0v6.877a1.7,1.7,0,1,1-3.408,0Zm-13.8,0a1.7,1.7,0,1,1,3.408,0v6.877a1.7,1.7,0,1,1-3.408,0Zm-13.8,0a1.7,1.7,0,0,1,3.408,0v6.877a1.7,1.7,0,1,1-3.408,0Zm-13.8,0a1.7,1.7,0,0,1,3.408,0v6.877a1.7,1.7,0,1,1-3.408,0Zm-13.8,0a1.7,1.7,0,0,1,3.409,0v6.877a1.7,1.7,0,0,1-3.409,0Z" fill="#09394c"/>
    <path id="Trazado_188492" data-name="Trazado 188492" d="M82.213,45.006a26.606,26.606,0,0,0-22.927,13.2,1.6,1.6,0,1,0,2.763,1.606,23.2,23.2,0,1,1-2.42,5.92,1.6,1.6,0,0,0-3.1-.789A26.5,26.5,0,1,0,82.213,45.006Z" fill="#09394c"/>
    <path id="Trazado_188493" data-name="Trazado 188493" d="M83.811,54.621V53.235a1.6,1.6,0,0,0-3.2,0v1.386a1.6,1.6,0,1,0,3.2,0" fill="#09394c"/>
    <path id="Trazado_188494" data-name="Trazado 188494" d="M70.273,61.165a1.6,1.6,0,0,0,1.13-2.728l-.98-.98a1.6,1.6,0,0,0-2.26,2.259l.98.981A1.593,1.593,0,0,0,70.273,61.165Z" fill="#09394c"/>
    <path id="Trazado_188495" data-name="Trazado 188495" d="M65.328,73.1a1.6,1.6,0,0,0,0-3.2H63.942a1.6,1.6,0,0,0,0,3.2Z" fill="#09394c"/>
    <path id="Trazado_188496" data-name="Trazado 188496" d="M68.163,85.555a1.6,1.6,0,0,0,2.26,0l.98-.98a1.6,1.6,0,0,0-2.26-2.26l-.98.98A1.6,1.6,0,0,0,68.163,85.555Z" fill="#09394c"/>
    <path id="Trazado_188497" data-name="Trazado 188497" d="M80.615,88.391v1.386a1.6,1.6,0,0,0,3.2,0V88.391a1.6,1.6,0,0,0-3.2,0" fill="#09394c"/>
    <path id="Trazado_188498" data-name="Trazado 188498" d="M93.022,84.575l.98.98a1.6,1.6,0,0,0,2.26-2.26l-.98-.98a1.6,1.6,0,0,0-2.26,2.26Z" fill="#09394c"/>
    <path id="Trazado_188499" data-name="Trazado 188499" d="M100.484,73.1a1.6,1.6,0,0,0,0-3.2H99.1a1.6,1.6,0,0,0,0,3.2Z" fill="#09394c"/>
    <path id="Trazado_188500" data-name="Trazado 188500" d="M94.152,61.165a1.593,1.593,0,0,0,1.13-.468l.98-.981A1.6,1.6,0,0,0,94,57.457l-.98.98a1.6,1.6,0,0,0,1.13,2.728Z" fill="#09394c"/>
    <path id="Trazado_188501" data-name="Trazado 188501" d="M76.13,62.352a1.6,1.6,0,0,0-2.377,2.136l3.656,4.066a5.639,5.639,0,1,0,10,.765l2.94-2.4a1.6,1.6,0,0,0-2.023-2.474l-2.942,2.406a5.625,5.625,0,0,0-5.6-.43Zm8.527,9.154A2.445,2.445,0,1,1,80.572,69.7l.009-.007.01-.01a2.441,2.441,0,0,1,4.066,1.824Z" fill="#09394c"/>
    <path id="Trazado_188502" data-name="Trazado 188502" d="M21.9,33.075a3.707,3.707,0,0,0-3.7-3.7H13.463a3.707,3.707,0,0,0-3.7,3.7v4.739a3.706,3.706,0,0,0,3.7,3.7H18.2a3.706,3.706,0,0,0,3.7-3.7Zm-3.2,4.739a.507.507,0,0,1-.506.506H13.463a.507.507,0,0,1-.507-.506V33.075a.507.507,0,0,1,.507-.506H18.2a.507.507,0,0,1,.506.506Z" fill="#09394c"/>
    <path id="Trazado_188503" data-name="Trazado 188503" d="M38.848,33.075a3.707,3.707,0,0,0-3.7-3.7H30.407a3.707,3.707,0,0,0-3.7,3.7v4.739a3.706,3.706,0,0,0,3.7,3.7h4.738a3.706,3.706,0,0,0,3.7-3.7Zm-3.2,4.739a.507.507,0,0,1-.507.506H30.407a.507.507,0,0,1-.507-.506V33.075a.507.507,0,0,1,.507-.506h4.738a.507.507,0,0,1,.507.506Z" fill="#09394c"/>
    <path id="Trazado_188504" data-name="Trazado 188504" d="M47.351,29.372a3.707,3.707,0,0,0-3.7,3.7v4.739a3.707,3.707,0,0,0,3.7,3.7h4.738a3.706,3.706,0,0,0,3.7-3.7V33.075a3.706,3.706,0,0,0-3.7-3.7Zm5.246,3.7v4.739a.508.508,0,0,1-.508.506H47.351a.507.507,0,0,1-.507-.506V33.075a.507.507,0,0,1,.507-.506h4.738a.508.508,0,0,1,.508.506" fill="#09394c"/>
    <path id="Trazado_188505" data-name="Trazado 188505" d="M64.3,29.372a3.707,3.707,0,0,0-3.7,3.7v4.739a3.707,3.707,0,0,0,3.7,3.7h4.738a3.707,3.707,0,0,0,3.7-3.7V33.075a3.707,3.707,0,0,0-3.7-3.7Zm5.245,3.7v4.739a.507.507,0,0,1-.507.506H64.3a.507.507,0,0,1-.507-.506V33.075a.507.507,0,0,1,.507-.506h4.738a.507.507,0,0,1,.507.506" fill="#09394c"/>
    <path id="Trazado_188506" data-name="Trazado 188506" d="M81.239,29.372a3.707,3.707,0,0,0-3.7,3.7v4.739a3.707,3.707,0,0,0,3.7,3.7h4.74a3.707,3.707,0,0,0,3.7-3.7V33.075a3.707,3.707,0,0,0-3.7-3.7Zm5.246,3.7v4.739a.507.507,0,0,1-.506.506h-4.74a.507.507,0,0,1-.506-.506V33.075a.507.507,0,0,1,.506-.506h4.74a.507.507,0,0,1,.506.506" fill="#09394c"/>
    <path id="Trazado_188507" data-name="Trazado 188507" d="M21.9,49.218a3.707,3.707,0,0,0-3.7-3.7H13.463a3.707,3.707,0,0,0-3.7,3.7v4.739a3.707,3.707,0,0,0,3.7,3.7H18.2a3.707,3.707,0,0,0,3.7-3.7Zm-3.2,4.739a.507.507,0,0,1-.506.506H13.463a.507.507,0,0,1-.507-.506V49.218a.507.507,0,0,1,.507-.506H18.2a.507.507,0,0,1,.506.506Z" fill="#09394c"/>
    <path id="Trazado_188508" data-name="Trazado 188508" d="M38.848,49.218a3.707,3.707,0,0,0-3.7-3.7H30.407a3.707,3.707,0,0,0-3.7,3.7v4.739a3.707,3.707,0,0,0,3.7,3.7h4.738a3.707,3.707,0,0,0,3.7-3.7Zm-3.2,4.739a.507.507,0,0,1-.507.506H30.407a.507.507,0,0,1-.507-.506V49.218a.507.507,0,0,1,.507-.506h4.738a.507.507,0,0,1,.507.506Z" fill="#09394c"/>
    <path id="Trazado_188509" data-name="Trazado 188509" d="M55.792,49.218a3.706,3.706,0,0,0-3.7-3.7H47.351a3.707,3.707,0,0,0-3.7,3.7v4.739a3.707,3.707,0,0,0,3.7,3.7h4.738a3.706,3.706,0,0,0,3.7-3.7ZM52.6,53.957a.508.508,0,0,1-.508.506H47.351a.507.507,0,0,1-.507-.506V49.218a.507.507,0,0,1,.507-.506h4.738a.508.508,0,0,1,.508.506Z" fill="#09394c"/>
    <path id="Trazado_188510" data-name="Trazado 188510" d="M18.2,61.658H13.463a3.707,3.707,0,0,0-3.7,3.7V70.1a3.707,3.707,0,0,0,3.7,3.7H18.2a3.707,3.707,0,0,0,3.7-3.7V65.361a3.707,3.707,0,0,0-3.7-3.7m.506,8.442a.507.507,0,0,1-.506.507H13.463a.508.508,0,0,1-.507-.507V65.361a.507.507,0,0,1,.507-.506H18.2a.507.507,0,0,1,.506.506Z" fill="#09394c"/>
    <path id="Trazado_188511" data-name="Trazado 188511" d="M35.146,61.658H30.407a3.707,3.707,0,0,0-3.7,3.7V70.1a3.707,3.707,0,0,0,3.7,3.7h4.739a3.707,3.707,0,0,0,3.7-3.7V65.361a3.707,3.707,0,0,0-3.7-3.7m.506,8.442a.507.507,0,0,1-.506.507H30.407A.508.508,0,0,1,29.9,70.1V65.361a.507.507,0,0,1,.507-.506h4.739a.507.507,0,0,1,.506.506Z" fill="#09394c"/>
  </g>
</svg>
