<svg id="Grupo_145928" data-name="Grupo 145928" xmlns="http://www.w3.org/2000/svg" xmlns:xlink="http://www.w3.org/1999/xlink" width="217.119" height="190.982" viewBox="0 0 217.119 190.982">
  <defs>
    <clipPath id="clip-path">
      <rect id="Rectángulo_39162" data-name="Rectángulo 39162" width="217.119" height="190.982" fill="none"/>
    </clipPath>
  </defs>
  <rect id="Rectángulo_39138" data-name="Rectángulo 39138" width="123.52" height="123.519" transform="translate(0 0.001)" fill="#ffca28"/>
  <rect id="Rectángulo_39139" data-name="Rectángulo 39139" width="128.013" height="123.701" transform="translate(86.546 64.808)" fill="none" stroke="#ffca28" stroke-width="1"/>
  <path id="Trazado_186674" data-name="Trazado 186674" d="M125.573,133.636H64.661l5.08-51.041H120.5Z" transform="translate(7.957 10.163)" fill="#0b3360"/>
  <rect id="Rectángulo_39140" data-name="Rectángulo 39140" width="75.736" height="4.441" transform="translate(65.204 143.8)" fill="#0b3360"/>
  <g id="Grupo_145929" data-name="Grupo 145929">
    <g id="Grupo_145928-2" data-name="Grupo 145928" clip-path="url(#clip-path)">
      <path id="Trazado_186675" data-name="Trazado 186675" d="M183.082,110.53a7.42,7.42,0,0,1-7.408,7.4H25.9a7.412,7.412,0,0,1-7.4-7.4V23.819a7.415,7.415,0,0,1,7.4-7.4H175.675a7.423,7.423,0,0,1,7.408,7.4Z" transform="translate(2.277 2.02)" fill="#343049"/>
      <path id="Trazado_186676" data-name="Trazado 186676" d="M183.082,117.768a7.426,7.426,0,0,1-7.408,7.4H25.9a7.418,7.418,0,0,1-7.4-7.4V31.052a7.415,7.415,0,0,1,7.4-7.4H175.675a7.422,7.422,0,0,1,7.408,7.4Z" transform="translate(2.277 2.911)" fill="#0b3360"/>
      <path id="Trazado_186677" data-name="Trazado 186677" d="M183.082,110.53a7.42,7.42,0,0,1-7.408,7.4H25.9a7.412,7.412,0,0,1-7.4-7.4V23.819a7.415,7.415,0,0,1,7.4-7.4H175.675a7.423,7.423,0,0,1,7.408,7.4Z" transform="translate(2.277 2.02)" fill="#023f61"/>
      <rect id="Rectángulo_39141" data-name="Rectángulo 39141" width="164.577" height="8.129" transform="translate(20.782 112.55)" fill="#023f61"/>
      <path id="Trazado_186678" data-name="Trazado 186678" d="M176.491,111.2a4.445,4.445,0,0,1-4.445,4.43H28.234A4.439,4.439,0,0,1,23.8,111.2V26.757a4.45,4.45,0,0,1,4.436-4.445H172.046a4.456,4.456,0,0,1,4.445,4.445Z" transform="translate(2.928 2.745)" fill="#55d6d2"/>
      <path id="Trazado_186679" data-name="Trazado 186679" d="M110.379,27.994H66.694v80.553h60.4V44.706Z" transform="translate(8.207 3.445)" fill="#fff"/>
      <path id="Trazado_186680" data-name="Trazado 186680" d="M105.589,44.709H122.3L105.589,27.994Z" transform="translate(12.993 3.445)" fill="#025a82"/>
      <rect id="Rectángulo_39142" data-name="Rectángulo 39142" width="52.731" height="4.815" transform="translate(78.734 91.967)" fill="#025a82"/>
      <rect id="Rectángulo_39143" data-name="Rectángulo 39143" width="52.731" height="4.815" transform="translate(78.734 82.386)" fill="#025a82"/>
      <rect id="Rectángulo_39144" data-name="Rectángulo 39144" width="52.731" height="4.815" transform="translate(78.734 72.805)" fill="#025a82"/>
      <rect id="Rectángulo_39145" data-name="Rectángulo 39145" width="52.731" height="4.815" transform="translate(78.734 62.728)" fill="#025a82"/>
      <rect id="Rectángulo_39146" data-name="Rectángulo 39146" width="35.651" height="4.815" transform="translate(78.734 53.147)" fill="#025a82"/>
      <path id="Trazado_186681" data-name="Trazado 186681" d="M190.269,81.074A6.151,6.151,0,0,1,196.4,87.2v65.476c0,3.373-2.76,3.974-6.13,3.974H137.35a6.14,6.14,0,0,1-6.124-6.125V87.2a6.147,6.147,0,0,1,6.124-6.131Z" transform="translate(16.147 9.976)" fill="#025a82"/>
      <path id="Trazado_186682" data-name="Trazado 186682" d="M165.635,145.109a2.408,2.408,0,0,1-2.409,2.408H158.32a2.408,2.408,0,1,1,0-4.816h4.907a2.406,2.406,0,0,1,2.409,2.408" transform="translate(19.185 17.559)" fill="#023f61"/>
      <path id="Rectángulo_39147" data-name="Rectángulo 39147" d="M1.366,0H57.447a1.366,1.366,0,0,1,1.366,1.366V62.829a1.366,1.366,0,0,1-1.366,1.366H1.363A1.363,1.363,0,0,1,0,62.832V1.366A1.366,1.366,0,0,1,1.366,0Z" transform="translate(150.552 94.561)" fill="#00d9d0"/>
      <path id="Trazado_186683" data-name="Trazado 186683" d="M171.562,88.607H142.117v54.3h40.709V99.871Z" transform="translate(17.487 10.903)" fill="#fff"/>
      <path id="Trazado_186684" data-name="Trazado 186684" d="M168.334,99.874H179.6L168.334,88.607Z" transform="translate(20.713 10.903)" fill="#025a82"/>
      <rect id="Rectángulo_39148" data-name="Rectángulo 39148" width="35.542" height="3.246" transform="translate(162.189 140.308)" fill="#025a82"/>
      <rect id="Rectángulo_39149" data-name="Rectángulo 39149" width="35.542" height="3.246" transform="translate(162.189 133.851)" fill="#025a82"/>
      <rect id="Rectángulo_39150" data-name="Rectángulo 39150" width="35.542" height="3.246" transform="translate(162.189 127.393)" fill="#025a82"/>
      <rect id="Rectángulo_39151" data-name="Rectángulo 39151" width="35.542" height="3.246" transform="translate(162.189 120.6)" fill="#025a82"/>
      <rect id="Rectángulo_39152" data-name="Rectángulo 39152" width="24.03" height="3.246" transform="translate(162.189 114.142)" fill="#025a82"/>
      <path id="Rectángulo_39153" data-name="Rectángulo 39153" d="M3.283,0H28.02A3.284,3.284,0,0,1,31.3,3.284V53.768a3.283,3.283,0,0,1-3.283,3.283H3.284A3.284,3.284,0,0,1,0,53.767V3.283A3.283,3.283,0,0,1,3.283,0Z" transform="translate(111.343 109.581)" fill="#025a82"/>
      <path id="Rectángulo_39154" data-name="Rectángulo 39154" d="M1.312,0H25.731a1.314,1.314,0,0,1,1.314,1.314V42.937a1.312,1.312,0,0,1-1.312,1.312H1.312A1.312,1.312,0,0,1,0,42.937V1.312A1.312,1.312,0,0,1,1.312,0Z" transform="translate(113.47 114.594)" fill="#55d6d2"/>
      <rect id="Rectángulo_39155" data-name="Rectángulo 39155" width="7.603" height="0.731" transform="translate(123.194 112.058)" fill="#023f61"/>
      <path id="Rectángulo_39156" data-name="Rectángulo 39156" d="M.72,0H3.809a.718.718,0,0,1,.718.718v3.1a.718.718,0,0,1-.718.718H.718A.718.718,0,0,1,0,3.816V.72A.72.72,0,0,1,.72,0Z" transform="translate(124.731 160.469)" fill="#023f61"/>
      <path id="Trazado_186685" data-name="Trazado 186685" d="M118.871,110.5H103.68v28.012h21v-22.2Z" transform="translate(12.758 13.597)" fill="#fff"/>
      <path id="Trazado_186686" data-name="Trazado 186686" d="M117.205,116.316h5.813l-5.813-5.813Z" transform="translate(14.422 13.597)" fill="#025a82"/>
      <rect id="Rectángulo_39157" data-name="Rectángulo 39157" width="18.337" height="1.674" transform="translate(117.771 145.149)" fill="#025a82"/>
      <rect id="Rectángulo_39158" data-name="Rectángulo 39158" width="18.337" height="1.674" transform="translate(117.771 141.818)" fill="#025a82"/>
      <rect id="Rectángulo_39159" data-name="Rectángulo 39159" width="18.337" height="1.674" transform="translate(117.771 138.485)" fill="#025a82"/>
      <rect id="Rectángulo_39160" data-name="Rectángulo 39160" width="18.337" height="1.674" transform="translate(117.771 134.982)" fill="#025a82"/>
      <rect id="Rectángulo_39161" data-name="Rectángulo 39161" width="12.397" height="1.674" transform="translate(117.771 131.649)" fill="#025a82"/>
    </g>
  </g>
</svg>
