<svg id="Grupo_145698" data-name="Grupo 145698" xmlns="http://www.w3.org/2000/svg" xmlns:xlink="http://www.w3.org/1999/xlink" width="246.756" height="196.36" viewBox="0 0 246.756 196.36">
  <defs>
    <clipPath id="clip-path">
      <rect id="Rectángulo_39041" data-name="Rectángulo 39041" width="246.756" height="196.36" fill="none"/>
    </clipPath>
    <clipPath id="clip-path-2">
      <path id="Trazado_186357" data-name="Trazado 186357" d="M236.85,191.44H19.473l17.636-6.492h182.1Z" transform="translate(-19.473 -184.948)" fill="none"/>
    </clipPath>
    <linearGradient id="linear-gradient" x1="-0.08" y1="4.893" x2="-0.076" y2="4.893" gradientUnits="objectBoundingBox">
      <stop offset="0" stop-color="#e2f4ff"/>
      <stop offset="1" stop-color="#d7ecff"/>
    </linearGradient>
    <clipPath id="clip-path-4">
      <rect id="Rectángulo_39012" data-name="Rectángulo 39012" width="34.958" height="102.007" fill="none"/>
    </clipPath>
    <clipPath id="clip-path-5">
      <rect id="Rectángulo_39013" data-name="Rectángulo 39013" width="34.959" height="102.007" fill="none"/>
    </clipPath>
    <clipPath id="clip-path-6">
      <path id="Trazado_186365" data-name="Trazado 186365" d="M63.752,106.014l4.905,13.5,5.879-1.7C73.171,113,72.885,106,64.5,106q-.363,0-.749.018" transform="translate(-63.752 -105.996)" fill="none"/>
    </clipPath>
    <linearGradient id="linear-gradient-2" x1="-3.124" y1="6.373" x2="-3.072" y2="6.373" gradientUnits="objectBoundingBox">
      <stop offset="0" stop-color="#7541ff"/>
      <stop offset="1" stop-color="#6c73ff"/>
    </linearGradient>
    <clipPath id="clip-path-8">
      <path id="Trazado_186371" data-name="Trazado 186371" d="M67.7,204.827s11.115.64,11.056-.1-.739-.308-3.332-2.283a12.213,12.213,0,0,1-3.376-3.487,35.872,35.872,0,0,0-4.12-.179Z" transform="translate(-67.704 -198.782)" fill="none"/>
    </clipPath>
    <linearGradient id="linear-gradient-3" x1="-5.421" y1="2.908" x2="-5.341" y2="2.908" gradientUnits="objectBoundingBox">
      <stop offset="0" stop-color="#a98afa"/>
      <stop offset="0.002" stop-color="#a98afa"/>
      <stop offset="1" stop-color="#8c83fb"/>
    </linearGradient>
    <clipPath id="clip-path-10">
      <path id="Trazado_186375" data-name="Trazado 186375" d="M53.8,204.842c6.287.159,6.109,1.424,5.1-5.135l-4-.02c-.052.975-1.068,4.309-1.091,5.155" transform="translate(-53.803 -199.687)" fill="none"/>
    </clipPath>
    <linearGradient id="linear-gradient-4" x1="-7.617" y1="2.82" x2="-7.475" y2="2.82" xlink:href="#linear-gradient-3"/>
    <clipPath id="clip-path-11">
      <path id="Trazado_186376" data-name="Trazado 186376" d="M54.392,159.718c.273,4.184.424,30.8.424,30.8h4.274l4.516-43.475,2.365,13.248a169.263,169.263,0,0,0,.365,29.149l4.036.179s2.966-26.387,3.057-29.479-1.7-23.925-1.7-23.925l-16.635-.6s-.975,19.921-.7,24.1" transform="translate(-54.344 -135.614)" fill="none"/>
    </clipPath>
    <linearGradient id="linear-gradient-5" x1="-2.481" y1="1.378" x2="-2.435" y2="1.378" gradientUnits="objectBoundingBox">
      <stop offset="0" stop-color="#374492"/>
      <stop offset="0.088" stop-color="#374492"/>
      <stop offset="1" stop-color="#014dae"/>
    </linearGradient>
    <clipPath id="clip-path-12">
      <path id="Trazado_186377" data-name="Trazado 186377" d="M54.089,115.056a76.023,76.023,0,0,1,.925,17.2c0,.411,1.466.76,3.53,1.007,4.895.586,13.16.613,13.1-.4-1.817-15.311,3.453-25.357-6.959-27.224l-5.087-.513c-6.681.852-6.424,3.539-5.513,9.932" transform="translate(-53.615 -105.124)" fill="none"/>
    </clipPath>
    <linearGradient id="linear-gradient-6" x1="-2.12" y1="3.575" x2="-2.08" y2="3.575" gradientUnits="objectBoundingBox">
      <stop offset="0" stop-color="#ffd744"/>
      <stop offset="0.039" stop-color="#ffd744"/>
      <stop offset="1" stop-color="#f5c144"/>
    </linearGradient>
    <clipPath id="clip-path-14">
      <path id="Trazado_186379" data-name="Trazado 186379" d="M76.042,95.692l8.124,3.829L88,91.391Z" transform="translate(-76.042 -91.391)" fill="none"/>
    </clipPath>
    <linearGradient id="linear-gradient-7" x1="-5.66" y1="14.149" x2="-5.586" y2="14.149" xlink:href="#linear-gradient"/>
    <clipPath id="clip-path-15">
      <path id="Trazado_186380" data-name="Trazado 186380" d="M78.768,110.948l-.724,1.539,2.509,4.367.809-1.716-1.537-2.762,3.1-.556.813-1.727Z" transform="translate(-78.044 -110.092)" fill="none"/>
    </clipPath>
    <linearGradient id="linear-gradient-8" x1="-12.194" y1="14.55" x2="-12.038" y2="14.55" gradientUnits="objectBoundingBox">
      <stop offset="0" stop-color="#294698"/>
      <stop offset="1" stop-color="#0e4ba6"/>
    </linearGradient>
    <clipPath id="clip-path-16">
      <path id="Trazado_186381" data-name="Trazado 186381" d="M81.6,118.606l1.079.509,7.584-8.372-1.079-.508Z" transform="translate(-81.603 -110.235)" fill="none"/>
    </clipPath>
    <linearGradient id="linear-gradient-9" x1="-8.383" y1="11.065" x2="-8.281" y2="11.065" xlink:href="#linear-gradient-8"/>
    <clipPath id="clip-path-17">
      <path id="Trazado_186382" data-name="Trazado 186382" d="M90.484,115.234l1.545,2.746-3.109.573-.808,1.716,4.965-.845.725-1.539-2.5-4.379Z" transform="translate(-88.111 -113.507)" fill="none"/>
    </clipPath>
    <linearGradient id="linear-gradient-10" x1="-13.78" y1="14.099" x2="-13.624" y2="14.099" xlink:href="#linear-gradient-8"/>
    <clipPath id="clip-path-19">
      <rect id="Rectángulo_39028" data-name="Rectángulo 39028" width="4.455" height="18.484" fill="none"/>
    </clipPath>
    <clipPath id="clip-path-20">
      <path id="Trazado_186383" data-name="Trazado 186383" d="M58.6,134.459c-2.065-.247-3.53-.594-3.53-1.007a76.07,76.07,0,0,0-.926-17.2l2.615-.275a62.335,62.335,0,0,0-.837,10.692c.169,4.468.375,6.991,2.678,7.792" transform="translate(-54.148 -115.975)" fill="none"/>
    </clipPath>
    <linearGradient id="linear-gradient-11" x1="-2.187" y1="14.951" x2="-2.14" y2="14.951" xlink:href="#linear-gradient-6"/>
    <clipPath id="clip-path-21">
      <path id="Trazado_186385" data-name="Trazado 186385" d="M63.729,90.538a17.184,17.184,0,0,1-2.745.883c-2.215.61-2.358,3.491-1.915,5.333a8.6,8.6,0,0,0,.247.826,7.487,7.487,0,0,0,1.267,2.373c.115-.032-.541-3,.086-3.031.44-.013.655.613.76,1.287.2-.074.454-.183.66-.275v-.023c0-.924-.9-2.759.266-3.337.841-.418,1.665.042,2.448.36a2.636,2.636,0,0,0,2.359-.044,2.18,2.18,0,0,0,1.048-2.078,3.188,3.188,0,0,0-1.784-2.753,1.961,1.961,0,0,0-.747-.146,4.811,4.811,0,0,0-1.953.627" transform="translate(-58.867 -89.911)" fill="none"/>
    </clipPath>
    <linearGradient id="linear-gradient-12" x1="-5.419" y1="11.568" x2="-5.326" y2="11.568" xlink:href="#linear-gradient-8"/>
    <clipPath id="clip-path-23">
      <path id="Trazado_186388" data-name="Trazado 186388" d="M53.959,107.838c-.013.019-.027.038-.038.057a3.1,3.1,0,0,0-.559,1.346c-.207,2.195,1.472,10.977,1.472,10.977L61,119.169l-1.857-9.608a3.559,3.559,0,0,0-3.251-2.77,2.281,2.281,0,0,0-1.935,1.047" transform="translate(-53.344 -106.791)" fill="none"/>
    </clipPath>
    <linearGradient id="linear-gradient-13" x1="-3.991" y1="6.758" x2="-3.913" y2="6.758" xlink:href="#linear-gradient-6"/>
    <clipPath id="clip-path-25">
      <rect id="Rectángulo_39033" data-name="Rectángulo 39033" width="1.694" height="1.662" fill="none"/>
    </clipPath>
    <clipPath id="clip-path-26">
      <path id="Trazado_186392" data-name="Trazado 186392" d="M61.751,99.2a14.335,14.335,0,0,0,2.164,3.51,6.167,6.167,0,0,0,1.694.877v-.051c1.784.464,2.074-.9,2.01-3.048-.728-.412-1.971.29-3.215.323-1.3.025-2-1.888-2-1.888Z" transform="translate(-61.751 -98.924)" fill="none"/>
    </clipPath>
    <linearGradient id="linear-gradient-14" x1="-9.264" y1="21.33" x2="-9.114" y2="21.33" xlink:href="#linear-gradient-8"/>
    <clipPath id="clip-path-28">
      <path id="Trazado_186394" data-name="Trazado 186394" d="M116.578,112.43a.85.85,0,0,0-.848.789l-2.3,32.42H158.3l2.287-32.3a.85.85,0,0,0-.847-.91Z" transform="translate(-113.435 -112.43)" fill="none"/>
    </clipPath>
    <linearGradient id="linear-gradient-15" x1="-2.139" y1="2.9" x2="-2.121" y2="2.9" gradientUnits="objectBoundingBox">
      <stop offset="0" stop-color="#f0a718"/>
      <stop offset="0.04" stop-color="#f0a718"/>
      <stop offset="1" stop-color="#f5c144"/>
    </linearGradient>
    <clipPath id="clip-path-30">
      <path id="Trazado_186396" data-name="Trazado 186396" d="M122.123,117.091a.848.848,0,0,0-.818.623l-7.87,28.439H158.3l7.744-27.986a.85.85,0,0,0-.82-1.076Z" transform="translate(-113.435 -117.091)" fill="none"/>
    </clipPath>
    <linearGradient id="linear-gradient-16" x1="-1.913" y1="3.171" x2="-1.897" y2="3.171" xlink:href="#linear-gradient-6"/>
  </defs>
  <g id="Grupo_145697" data-name="Grupo 145697" clip-path="url(#clip-path)">
    <rect id="Rectángulo_39009" data-name="Rectángulo 39009" width="124.254" height="119.695" transform="translate(0 31.402)" fill="#ffd553"/>
    <rect id="Rectángulo_39010" data-name="Rectángulo 39010" width="127.07" height="66.723" transform="translate(109.135 129.637)" fill="#ffd553"/>
    <g id="Grupo_145634" data-name="Grupo 145634" transform="translate(17.33 164.593)">
      <g id="Grupo_145633" data-name="Grupo 145633" clip-path="url(#clip-path-2)">
        <rect id="Rectángulo_39011" data-name="Rectángulo 39011" width="217.377" height="6.492" transform="translate(0)" fill="url(#linear-gradient)"/>
      </g>
    </g>
    <g id="Grupo_145642" data-name="Grupo 145642">
      <g id="Grupo_145641" data-name="Grupo 145641" clip-path="url(#clip-path)">
        <path id="Trazado_186358" data-name="Trazado 186358" d="M223.248,60.12v109.2a2.758,2.758,0,0,1-2.9,2.592H39.811a2.756,2.756,0,0,1-2.894-2.592V60.12a2.756,2.756,0,0,1,2.894-2.592H220.345a2.758,2.758,0,0,1,2.9,2.592" transform="translate(-4.063 -6.332)" fill="#fff"/>
        <path id="Trazado_186359" data-name="Trazado 186359" d="M218.371,166.486s0,.005-.006.005H43.175l-.006,0v-102h175.2Z" transform="translate(-4.751 -7.097)" fill="#4484cd"/>
        <g id="Grupo_145637" data-name="Grupo 145637" transform="translate(38.418 57.389)" opacity="0.2" style="mix-blend-mode: screen;isolation: isolate">
          <g id="Grupo_145636" data-name="Grupo 145636">
            <g id="Grupo_145635" data-name="Grupo 145635" clip-path="url(#clip-path-4)">
              <path id="Trazado_186360" data-name="Trazado 186360" d="M78.127,166.486v.005H43.17V64.486H78.127Z" transform="translate(-43.169 -64.486)" fill="#1565c0"/>
            </g>
          </g>
        </g>
        <g id="Grupo_145640" data-name="Grupo 145640" transform="translate(178.661 57.389)" opacity="0.2" style="mix-blend-mode: screen;isolation: isolate">
          <g id="Grupo_145639" data-name="Grupo 145639">
            <g id="Grupo_145638" data-name="Grupo 145638" clip-path="url(#clip-path-5)">
              <path id="Trazado_186361" data-name="Trazado 186361" d="M235.715,166.486v.005H200.758V64.486h34.958Z" transform="translate(-200.756 -64.486)" fill="#1565c0"/>
            </g>
          </g>
        </g>
        <path id="Trazado_186362" data-name="Trazado 186362" d="M229.285,201.6H26.837a8.278,8.278,0,0,1-8.278-8.278,1.47,1.47,0,0,1,1.469-1.47H236.093a1.47,1.47,0,0,1,1.47,1.47,8.279,8.279,0,0,1-8.278,8.278" transform="translate(-2.043 -21.115)" fill="#104c90"/>
        <path id="Trazado_186363" data-name="Trazado 186363" d="M67.856,108.527c-2.637,2.292,3.708,19.236,5.82,17.986,3.974-.278-.849-20.814-5.82-17.986" transform="translate(-7.399 -11.915)" fill="#f9d8c7"/>
        <path id="Trazado_186364" data-name="Trazado 186364" d="M74.857,119.236l1.208,6.552L79.643,127l-.217,3.33s-5.761,0-7.217-1.952-2.695-7.775-2.695-7.775Z" transform="translate(-7.651 -13.123)" fill="#f9d8c7"/>
      </g>
    </g>
    <g id="Grupo_145644" data-name="Grupo 145644" transform="translate(56.735 94.33)">
      <g id="Grupo_145643" data-name="Grupo 145643" clip-path="url(#clip-path-6)">
        <rect id="Rectángulo_39015" data-name="Rectángulo 39015" width="17.146" height="16.227" transform="translate(-5.99 9.882) rotate(-58.777)" fill="url(#linear-gradient-2)"/>
      </g>
    </g>
    <g id="Grupo_145646" data-name="Grupo 145646">
      <g id="Grupo_145645" data-name="Grupo 145645" clip-path="url(#clip-path)">
        <path id="Trazado_186366" data-name="Trazado 186366" d="M72.923,128.786A1.5,1.5,0,0,0,73.744,130c3.582,1.881,12.175,1.319,11.989.056-.122-.825-13.013-5.155-12.811-1.269" transform="translate(-8.026 -13.999)" fill="#f9d8c7"/>
        <path id="Trazado_186367" data-name="Trazado 186367" d="M85.634,129.544l-.164-.13.416-.238h0l.74-.376a1.3,1.3,0,0,1,.612-.139l.907.247s.147.25-.388.245a1.038,1.038,0,0,0-.481.218l.524.075,1.269.28a.763.763,0,0,1,.6.805.959.959,0,0,1-.755.654l-.845.236a2.889,2.889,0,0,1-1.245.03l-1.165-.473Z" transform="translate(-9.407 -14.16)" fill="#f9d8c7"/>
        <path id="Trazado_186368" data-name="Trazado 186368" d="M66.412,134.017c-5.16.2-2.57,4.985-1.563,9.2,1.832,6.623.893,15.238,3.578,16.156,7.156,2.106,4.634-23.237,2.643-24.38a14.526,14.526,0,0,0-4.658-.977" transform="translate(-6.967 -14.75)" fill="#f9d8c7"/>
        <path id="Trazado_186369" data-name="Trazado 186369" d="M71.782,159.966c-5.04-3.552-4.427,26.063-3.031,32.8s2.774-3.482,3.665-14.265,1.349-17.133-.634-18.53" transform="translate(-7.458 -17.573)" fill="#f9d8c7"/>
        <path id="Trazado_186370" data-name="Trazado 186370" d="M67.931,195.557l.1,2.964,3.718.05v-2.663Z" transform="translate(-7.476 -21.523)" fill="#f9d8c7"/>
      </g>
    </g>
    <g id="Grupo_145648" data-name="Grupo 145648" transform="translate(60.252 176.904)">
      <g id="Grupo_145647" data-name="Grupo 145647" clip-path="url(#clip-path-8)">
        <rect id="Rectángulo_39017" data-name="Rectángulo 39017" width="11.115" height="6.685" transform="translate(0)" fill="url(#linear-gradient-3)"/>
      </g>
    </g>
    <g id="Grupo_145650" data-name="Grupo 145650">
      <g id="Grupo_145649" data-name="Grupo 145649" clip-path="url(#clip-path)">
        <path id="Trazado_186372" data-name="Trazado 186372" d="M59.949,134.143c-5.065-1.008-5.007,4.451-5.007,8.786.242,6.868-1.325,14.828,1.071,16.345,6.471,3.711,8.307-22.341,6.636-23.915-.788-.725-1.052-.655-2.7-1.216" transform="translate(-6.016 -14.75)" fill="#f9d8c7"/>
        <path id="Trazado_186373" data-name="Trazado 186373" d="M58.7,159.966c-5.04-3.552-4.427,26.063-3.031,32.8s2.774-3.482,3.665-14.265,1.349-17.133-.634-18.53" transform="translate(-6.018 -17.573)" fill="#f9d8c7"/>
        <path id="Trazado_186374" data-name="Trazado 186374" d="M55.084,196.952l-.012,2.469,3.955.029-.009-2.177Z" transform="translate(-6.061 -21.677)" fill="#f9d8c7"/>
      </g>
    </g>
    <g id="Grupo_145652" data-name="Grupo 145652" transform="translate(47.881 177.709)">
      <g id="Grupo_145651" data-name="Grupo 145651" clip-path="url(#clip-path-10)">
        <rect id="Rectángulo_39019" data-name="Rectángulo 39019" width="6.287" height="6.578" fill="url(#linear-gradient-4)"/>
      </g>
    </g>
    <g id="Grupo_145654" data-name="Grupo 145654" transform="translate(48.363 120.688)">
      <g id="Grupo_145653" data-name="Grupo 145653" clip-path="url(#clip-path-11)">
        <rect id="Rectángulo_39020" data-name="Rectángulo 39020" width="19.402" height="54.908" transform="translate(-0.225)" fill="url(#linear-gradient-5)"/>
      </g>
    </g>
    <g id="Grupo_145656" data-name="Grupo 145656" transform="translate(47.714 93.554)">
      <g id="Grupo_145655" data-name="Grupo 145655" clip-path="url(#clip-path-12)">
        <rect id="Rectángulo_39021" data-name="Rectángulo 39021" width="22.18" height="28.754" transform="translate(-0.693)" fill="url(#linear-gradient-6)"/>
      </g>
    </g>
    <g id="Grupo_145658" data-name="Grupo 145658">
      <g id="Grupo_145657" data-name="Grupo 145657" clip-path="url(#clip-path)">
        <path id="Trazado_186378" data-name="Trazado 186378" d="M106.333,100.861l-17.955,38.1-28.211-13.3L74.293,95.689,86.252,91.4Z" transform="translate(-6.622 -10.059)" fill="#fff"/>
      </g>
    </g>
    <g id="Grupo_145660" data-name="Grupo 145660" transform="translate(67.673 81.332)">
      <g id="Grupo_145659" data-name="Grupo 145659" clip-path="url(#clip-path-14)">
        <rect id="Rectángulo_39023" data-name="Rectángulo 39023" width="11.955" height="8.13" transform="translate(0 0)" fill="url(#linear-gradient-7)"/>
      </g>
    </g>
    <g id="Grupo_145662" data-name="Grupo 145662" transform="translate(69.454 97.975)">
      <g id="Grupo_145661" data-name="Grupo 145661" clip-path="url(#clip-path-15)">
        <rect id="Rectángulo_39024" data-name="Rectángulo 39024" width="5.696" height="6.762" transform="translate(0 0)" fill="url(#linear-gradient-8)"/>
      </g>
    </g>
    <g id="Grupo_145664" data-name="Grupo 145664" transform="translate(72.622 98.103)">
      <g id="Grupo_145663" data-name="Grupo 145663" clip-path="url(#clip-path-16)">
        <rect id="Rectángulo_39025" data-name="Rectángulo 39025" width="8.663" height="8.88" transform="translate(0 0)" fill="url(#linear-gradient-9)"/>
      </g>
    </g>
    <g id="Grupo_145666" data-name="Grupo 145666" transform="translate(78.413 101.014)">
      <g id="Grupo_145665" data-name="Grupo 145665" clip-path="url(#clip-path-17)">
        <rect id="Rectángulo_39026" data-name="Rectángulo 39026" width="5.69" height="6.763" fill="url(#linear-gradient-10)"/>
      </g>
    </g>
    <g id="Grupo_145673" data-name="Grupo 145673">
      <g id="Grupo_145672" data-name="Grupo 145672" clip-path="url(#clip-path)">
        <g id="Grupo_145671" data-name="Grupo 145671" transform="translate(48.189 103.211)" opacity="0.5" style="mix-blend-mode: multiply;isolation: isolate">
          <g id="Grupo_145670" data-name="Grupo 145670">
            <g id="Grupo_145669" data-name="Grupo 145669" clip-path="url(#clip-path-19)">
              <g id="Grupo_145668" data-name="Grupo 145668" transform="translate(0)">
                <g id="Grupo_145667" data-name="Grupo 145667" clip-path="url(#clip-path-20)">
                  <rect id="Rectángulo_39027" data-name="Rectángulo 39027" width="18.762" height="5.806" transform="translate(-1.36 18.383) rotate(-85.77)" fill="url(#linear-gradient-11)"/>
                </g>
              </g>
            </g>
          </g>
        </g>
        <path id="Trazado_186384" data-name="Trazado 186384" d="M65.312,102.756v.052l-.006.786-.026,2.049a.026.026,0,0,1-.006.02c-.245,2.628-4.387-.226-4.851-1.321-.322-.7.155-1.056.167-2.538s.012-1.643.012-1.643c-4.967-7.9,3.325-11.113,6.494-5.508,0,1.836.193,3.62.225,5.057.065,2.152-.225,3.511-2.009,3.047" transform="translate(-6.499 -10.107)" fill="#f9d8c7"/>
      </g>
    </g>
    <g id="Grupo_145675" data-name="Grupo 145675" transform="translate(52.388 80.015)">
      <g id="Grupo_145674" data-name="Grupo 145674" clip-path="url(#clip-path-21)">
        <rect id="Rectángulo_39030" data-name="Rectángulo 39030" width="9.624" height="10.057" transform="translate(-0.241 0)" fill="url(#linear-gradient-12)"/>
      </g>
    </g>
    <g id="Grupo_145677" data-name="Grupo 145677">
      <g id="Grupo_145676" data-name="Grupo 145676" clip-path="url(#clip-path)">
        <path id="Trazado_186386" data-name="Trazado 186386" d="M55.157,107.917c-2.78,1.959,1.595,19.871,3.763,18.87,3.877.125,1.331-21.116-3.763-18.87" transform="translate(-5.972 -11.859)" fill="#f9d8c7"/>
        <path id="Trazado_186387" data-name="Trazado 186387" d="M60.9,120.593l.651,3.856,11.435-2.631,1.132,1.975s-13.96,6.465-15.749,4.722-2.974-7.248-2.974-7.248Z" transform="translate(-6.096 -13.272)" fill="#f9d8c7"/>
      </g>
    </g>
    <g id="Grupo_145679" data-name="Grupo 145679" transform="translate(47.473 95.038)">
      <g id="Grupo_145678" data-name="Grupo 145678" clip-path="url(#clip-path-23)">
        <rect id="Rectángulo_39032" data-name="Rectángulo 39032" width="11.402" height="15.125" transform="translate(-3.913 1.127) rotate(-16.844)" fill="url(#linear-gradient-13)"/>
      </g>
    </g>
    <g id="Grupo_145684" data-name="Grupo 145684">
      <g id="Grupo_145683" data-name="Grupo 145683" clip-path="url(#clip-path)">
        <path id="Trazado_186389" data-name="Trazado 186389" d="M58.64,128.236a1.452,1.452,0,0,0,1.215.744c3.926.226,17.525-6.309,16.671-7.067-.344-.735-19.626,2.964-17.886,6.323" transform="translate(-6.442 -13.407)" fill="#f9d8c7"/>
        <path id="Trazado_186390" data-name="Trazado 186390" d="M75.131,122.011l-.045-.286.408-.562,0,0,.75-.94a1.9,1.9,0,0,1,.724-.55l1.345-.217s.343.241-.366.555a1.5,1.5,0,0,0-.5.574l.737-.214,1.667-.438c.471-.1,1,2.056.255,2.579l-.378.3a4.174,4.174,0,0,1-1.625.785l-1.821.073Z" transform="translate(-8.264 -13.147)" fill="#f9d8c7"/>
        <g id="Grupo_145682" data-name="Grupo 145682" transform="translate(57.119 91.825)" style="mix-blend-mode: multiply;isolation: isolate">
          <g id="Grupo_145681" data-name="Grupo 145681">
            <g id="Grupo_145680" data-name="Grupo 145680" clip-path="url(#clip-path-25)">
              <path id="Trazado_186391" data-name="Trazado 186391" d="M65.876,104l-.006.837c-.619-.605-1.688-1.662-1.688-1.662a6.036,6.036,0,0,0,1.694.825" transform="translate(-64.183 -103.181)" fill="#d7cfbb"/>
            </g>
          </g>
        </g>
      </g>
    </g>
    <g id="Grupo_145686" data-name="Grupo 145686" transform="translate(54.955 88.036)">
      <g id="Grupo_145685" data-name="Grupo 145685" clip-path="url(#clip-path-26)">
        <rect id="Rectángulo_39035" data-name="Rectángulo 39035" width="5.932" height="5.077" transform="translate(0 0)" fill="url(#linear-gradient-14)"/>
      </g>
    </g>
    <g id="Grupo_145688" data-name="Grupo 145688">
      <g id="Grupo_145687" data-name="Grupo 145687" clip-path="url(#clip-path)">
        <path id="Trazado_186393" data-name="Trazado 186393" d="M66.2,102.069a1.911,1.911,0,0,1,1.22-.379.93.93,0,0,1,.569.47s-1.107.69-1.789-.091" transform="translate(-7.286 -11.192)" fill="#f9d8c7"/>
      </g>
    </g>
    <g id="Grupo_145690" data-name="Grupo 145690" transform="translate(100.95 100.056)">
      <g id="Grupo_145689" data-name="Grupo 145689" clip-path="url(#clip-path-28)">
        <rect id="Rectángulo_39037" data-name="Rectángulo 39037" width="47.186" height="33.21" transform="translate(0 0)" fill="url(#linear-gradient-15)"/>
      </g>
    </g>
    <g id="Grupo_145692" data-name="Grupo 145692">
      <g id="Grupo_145691" data-name="Grupo 145691" clip-path="url(#clip-path)">
        <path id="Trazado_186395" data-name="Trazado 186395" d="M158.3,145.982H113.435l5.5-30.448H162.3Z" transform="translate(-12.485 -12.716)" fill="#fff"/>
      </g>
    </g>
    <g id="Grupo_145694" data-name="Grupo 145694" transform="translate(100.95 104.204)">
      <g id="Grupo_145693" data-name="Grupo 145693" clip-path="url(#clip-path-30)">
        <rect id="Rectángulo_39039" data-name="Rectángulo 39039" width="52.757" height="29.062" fill="url(#linear-gradient-16)"/>
      </g>
    </g>
    <g id="Grupo_145696" data-name="Grupo 145696">
      <g id="Grupo_145695" data-name="Grupo 145695" clip-path="url(#clip-path)">
        <path id="Trazado_186397" data-name="Trazado 186397" d="M139.081,138.393l-4.674-3.258v-1.924l4.674-3.273v2.16l-2.9,2.064,2.9,2.086Z" transform="translate(-14.793 -14.301)" fill="#fff"/>
        <path id="Trazado_186398" data-name="Trazado 186398" d="M141.357,139.567l3.723-12.222h1.349l-3.723,12.222Z" transform="translate(-15.558 -14.016)" fill="#fff"/>
        <path id="Trazado_186399" data-name="Trazado 186399" d="M148.721,138.393v-2.146l2.9-2.086-2.9-2.064v-2.16l4.674,3.273v1.924Z" transform="translate(-16.368 -14.301)" fill="#fff"/>
        <path id="Trazado_186400" data-name="Trazado 186400" d="M204.255,17.47l-2.353-.007a17.623,17.623,0,0,0-2.042-5.135L201.6,10.6a1.568,1.568,0,0,0,.006-2.218l-3.781-3.805a1.568,1.568,0,0,0-2.218-.007l-1.67,1.659a17.8,17.8,0,0,0-5.074-2.192l.008-2.446A1.568,1.568,0,0,0,187.306.018L181.941,0a1.569,1.569,0,0,0-1.573,1.563l-.007,2.357a17.763,17.763,0,0,0-5.137,2.036L173.5,4.22a1.568,1.568,0,0,0-2.218-.006L167.475,8a1.568,1.568,0,0,0-.007,2.218l1.663,1.674a17.592,17.592,0,0,0-2.193,5.07l-2.45-.008a1.568,1.568,0,0,0-1.573,1.564l-.017,5.365a1.567,1.567,0,0,0,1.563,1.573l2.361.008a17.467,17.467,0,0,0,2.035,5.134l-1.739,1.728a1.568,1.568,0,0,0-.007,2.218l3.781,3.805a1.568,1.568,0,0,0,2.218.007l1.67-1.66h0a17.8,17.8,0,0,0,5.071,2.193h0l-.007,2.446a1.567,1.567,0,0,0,1.563,1.573l5.365.017a1.568,1.568,0,0,0,1.573-1.563L188.357,39h0a17.523,17.523,0,0,0,5.131-2.036l0,0,1.726,1.737a1.568,1.568,0,0,0,2.218.007l3.805-3.781a1.568,1.568,0,0,0,.007-2.218l-1.662-1.673h0a17.6,17.6,0,0,0,2.2-5.07l2.442.007a1.567,1.567,0,0,0,1.573-1.563l.017-5.365a1.568,1.568,0,0,0-1.563-1.573m-18.6,13.891a9.986,9.986,0,1,1,8.6-8.6,9.99,9.99,0,0,1-8.6,8.6" transform="translate(-17.929 0)" fill="#ffd553"/>
        <path id="Trazado_186401" data-name="Trazado 186401" d="M262.382,119.878a11.968,11.968,0,1,0,11.931,12.005,11.98,11.98,0,0,0-11.931-12.005m0,1.36a17,17,0,0,1,3.807,6.356,13.218,13.218,0,0,1-7.642-.06,17.021,17.021,0,0,1,3.835-6.3m4.031,13.781a14.333,14.333,0,0,0-8.14.008,13.19,13.19,0,0,1-.031-6.4,14.047,14.047,0,0,0,8.243.062,13.171,13.171,0,0,1-.071,6.333m-.324,1.084a18.957,18.957,0,0,1-3.773,6.277,18.993,18.993,0,0,1-3.723-6.268,13.226,13.226,0,0,1,7.5-.009m1.419-7.749a17.729,17.729,0,0,0,4.094-2.12,10.737,10.737,0,0,1-.036,11.283,17.652,17.652,0,0,0-4.09-2.148,14.35,14.35,0,0,0,.033-7.015m3.457-3.054a16.638,16.638,0,0,1-3.766,1.963,18.731,18.731,0,0,0-3.433-6.15,10.823,10.823,0,0,1,7.2,4.187M261,121.1a18.736,18.736,0,0,0-3.457,6.083,17.475,17.475,0,0,1-3.723-2A10.824,10.824,0,0,1,261,121.1m-7.828,5.006a18.5,18.5,0,0,0,4.053,2.166,14.346,14.346,0,0,0-.012,7.105,18.666,18.666,0,0,0-4.075,2.145,10.74,10.74,0,0,1,.035-11.416m.609,12.346a17.649,17.649,0,0,1,3.749-1.986A19.406,19.406,0,0,0,261,142.591a10.825,10.825,0,0,1-7.226-4.136m9.843,4.144a19.4,19.4,0,0,0,3.53-6.143,16.826,16.826,0,0,1,3.768,1.992,10.824,10.824,0,0,1-7.3,4.152" transform="translate(-27.556 -13.194)" fill="#ffd553"/>
      </g>
    </g>
  </g>
</svg>
