<svg xmlns="http://www.w3.org/2000/svg" xmlns:xlink="http://www.w3.org/1999/xlink" width="98.376" height="98.902" viewBox="0 0 98.376 98.902">
  <defs>
    <clipPath id="clip-path">
      <rect id="Rectángulo_39363" data-name="Rectángulo 39363" width="98.376" height="98.902" transform="translate(0 0)" fill="none"/>
    </clipPath>
  </defs>
  <g id="Grupo_146201" data-name="Grupo 146201" transform="translate(0 0)">
    <g id="Grupo_146200" data-name="Grupo 146200" clip-path="url(#clip-path)">
      <path id="Trazado_188457" data-name="Trazado 188457" d="M95.747,71.561,66.122,48.234A1.352,1.352,0,0,0,63.935,49.3V64.808H30.217c-8.132,0-16.468-2.255-22.625-7.6a1.353,1.353,0,0,0-2.215,1.271,33.934,33.934,0,0,0,2.958,8.9c4.328,8.531,11.69,12.857,21.882,12.857H63.673V95.038a1.352,1.352,0,0,0,2.162,1.081L95.722,73.7a1.352,1.352,0,0,0,.025-2.143" fill="#ffca28"/>
      <path id="Trazado_188458" data-name="Trazado 188458" d="M95.747,71.561l-3.863-3.042C63.735,89.631,65.669,88.326,65.024,88.326a1.352,1.352,0,0,1-1.351-1.352v8.064a1.351,1.351,0,0,0,2.162,1.081L95.722,73.7a1.352,1.352,0,0,0,.025-2.143" fill="#e2af23"/>
      <path id="Trazado_188459" data-name="Trazado 188459" d="M92.956,40.558c-2.478-13.17-10.751-21.752-24.84-21.752H34.66V4A1.352,1.352,0,0,0,32.5,2.916L2.611,25.33a1.353,1.353,0,0,0-.025,2.144C34.5,52.6,32.376,51.09,33.047,51.09A1.352,1.352,0,0,0,34.4,49.739V34.227H68.116c8.151,0,16.483,2.266,22.626,7.6a1.353,1.353,0,0,0,2.214-1.271" fill="#1565c0"/>
      <path id="Trazado_188460" data-name="Trazado 188460" d="M33.047,43.609c-.669,0,1.3,1.394-26.977-20.873L2.611,25.331a1.352,1.352,0,0,0-.025,2.143L32.211,50.8A1.352,1.352,0,0,0,34.4,49.739V42.257a1.352,1.352,0,0,1-1.351,1.352" fill="#0f5ca8"/>
      <path id="Trazado_188461" data-name="Trazado 188461" d="M92.956,40.558a35.739,35.739,0,0,0-1.652-5.92c-.9-.223-7.695-7.893-23.187-7.893H42.669a7.767,7.767,0,0,1-1.607.123c-4.913,0-6.318,2.7-6.663,4.829v2.53H68.117c8.15,0,16.483,2.266,22.625,7.6a1.353,1.353,0,0,0,2.214-1.271" fill="#0f5ca8"/>
      <path id="Trazado_188462" data-name="Trazado 188462" d="M56.316,72.166h-26.1c-11.3,0-18.962-5.362-22.92-15.151a1.35,1.35,0,0,0-1.919,1.462c2.48,13.172,10.751,21.752,24.84,21.752H63.673V78.313c-.246-2.385-1.554-6.147-7.357-6.147" fill="#e2af23"/>
      <path id="Trazado_188463" data-name="Trazado 188463" d="M97.827,71.346,64.781,45.326a1.442,1.442,0,0,0-2.333,1.133V63.231H39.173a1.442,1.442,0,0,0,0,2.884H63.889a1.442,1.442,0,0,0,1.442-1.442V49.429L94.569,72.451l-29.5,22.124V80.025a1.442,1.442,0,0,0-1.442-1.442H30.323c-12.964,0-20.8-7.682-23.259-20.21a28.508,28.508,0,0,0,3.13,2.31c8.857,5.669,18.07,5.432,23.309,5.432a1.442,1.442,0,1,0,0-2.884c-4.088,0-13.16.457-21.625-4.893a21.317,21.317,0,0,1-5.613-4.9,1.444,1.444,0,0,0-2.623.866A35.226,35.226,0,0,0,7.211,67.793c3.14,6.238,9.7,13.674,23.112,13.674H62.187V97.458a1.443,1.443,0,0,0,2.307,1.154L97.8,73.632a1.443,1.443,0,0,0,.027-2.286" fill="#09394c"/>
      <path id="Trazado_188464" data-name="Trazado 188464" d="M35.928,52.443V35.671H68.052c8.846,0,14.914,2.661,18.445,4.893a21.343,21.343,0,0,1,5.614,4.9,1.443,1.443,0,0,0,2.622-.865,35.184,35.184,0,0,0-3.569-13.489c-3.14-6.238-9.7-13.674-23.112-13.674h-3.7a1.442,1.442,0,0,0,0,2.884h3.7c12.965,0,20.8,7.682,23.26,20.209-6.345-5.4-14.836-7.741-23.26-7.741H34.486a1.441,1.441,0,0,0-1.441,1.442V49.473L3.807,26.451l29.5-22.124v14.55a1.442,1.442,0,0,0,1.442,1.442H58.876a1.442,1.442,0,1,0,0-2.884H36.188V1.444A1.442,1.442,0,0,0,33.882.29L.576,25.27a1.443,1.443,0,0,0-.027,2.286L33.6,53.576a1.442,1.442,0,0,0,2.333-1.133" fill="#09394c"/>
    </g>
  </g>
</svg>
