<svg id="Grupo_145948" data-name="Grupo 145948" xmlns="http://www.w3.org/2000/svg" xmlns:xlink="http://www.w3.org/1999/xlink" width="112" height="112" viewBox="0 0 112 112">
  <defs>
    <clipPath id="clip-path">
      <rect id="Rectángulo_39186" data-name="Rectángulo 39186" width="112" height="112" fill="none"/>
    </clipPath>
  </defs>
  <g id="Grupo_145948-2" data-name="Grupo 145948" clip-path="url(#clip-path)">
    <path id="Trazado_187995" data-name="Trazado 187995" d="M56,0A56,56,0,1,1,0,56,56,56,0,0,1,56,0" fill="#039be5"/>
    <path id="Trazado_187996" data-name="Trazado 187996" d="M46.43,71.375H44.2a1.113,1.113,0,0,0,0,2.226H46.43a1.113,1.113,0,0,0,0-2.226" fill="#fff"/>
    <path id="Trazado_187997" data-name="Trazado 187997" d="M77.6,71.375H50.883a1.113,1.113,0,0,0,0,2.226H77.6a1.113,1.113,0,0,0,0-2.226" fill="#fff"/>
    <path id="Trazado_187998" data-name="Trazado 187998" d="M46.43,64.7H44.2a1.113,1.113,0,0,0,0,2.227H46.43a1.113,1.113,0,0,0,0-2.227" fill="#fff"/>
    <path id="Trazado_187999" data-name="Trazado 187999" d="M77.6,64.7H50.883a1.113,1.113,0,0,0,0,2.227H77.6a1.113,1.113,0,0,0,0-2.227" fill="#fff"/>
    <path id="Trazado_188000" data-name="Trazado 188000" d="M46.43,58.018H44.2a1.113,1.113,0,0,0,0,2.226H46.43a1.113,1.113,0,1,0,0-2.226" fill="#fff"/>
    <path id="Trazado_188001" data-name="Trazado 188001" d="M77.6,58.018H50.883a1.113,1.113,0,0,0,0,2.226H77.6a1.113,1.113,0,0,0,0-2.226" fill="#fff"/>
    <path id="Trazado_188002" data-name="Trazado 188002" d="M46.43,51.339H44.2a1.113,1.113,0,1,0,0,2.226H46.43a1.113,1.113,0,0,0,0-2.226" fill="#fff"/>
    <path id="Trazado_188003" data-name="Trazado 188003" d="M77.6,51.339H50.883a1.113,1.113,0,1,0,0,2.226H77.6a1.113,1.113,0,0,0,0-2.226" fill="#fff"/>
    <path id="Trazado_188004" data-name="Trazado 188004" d="M46.43,44.66H44.2a1.113,1.113,0,0,0,0,2.226H46.43a1.113,1.113,0,0,0,0-2.226" fill="#fff"/>
    <path id="Trazado_188005" data-name="Trazado 188005" d="M77.6,44.66H50.883a1.113,1.113,0,0,0,0,2.226H77.6a1.113,1.113,0,0,0,0-2.226" fill="#fff"/>
    <path id="Trazado_188006" data-name="Trazado 188006" d="M85.376,40.137a1.076,1.076,0,0,0-.057-.286,1.007,1.007,0,0,0-.037-.105,1.115,1.115,0,0,0-.222-.326L69.476,23.837a1.1,1.1,0,0,0-.326-.223,1.079,1.079,0,0,0-.1-.037,1.133,1.133,0,0,0-.288-.058c-.019,0-.04-.009-.065-.009H37.526a1.113,1.113,0,0,0-1.113,1.114v3.339H30.847a1.113,1.113,0,0,0-1.113,1.113V89.185A1.113,1.113,0,0,0,30.847,90.3H77.6a1.113,1.113,0,0,0,1.114-1.113V83.619h5.565a1.113,1.113,0,0,0,1.113-1.113v-42.3c0-.024-.012-.045-.014-.07M69.806,27.311,81.59,39.094H69.806Zm6.679,60.761H31.96V30.189h4.453V82.506a1.113,1.113,0,0,0,1.113,1.113H76.485Zm6.679-6.679H38.639V25.737H67.58v14.47a1.113,1.113,0,0,0,1.113,1.113H83.164Z" fill="#fff"/>
    <path id="Trazado_188007" data-name="Trazado 188007" d="M50.883,33.529H44.2a1.113,1.113,0,0,0-1.113,1.113v6.679A1.113,1.113,0,0,0,44.2,42.434h6.679A1.113,1.113,0,0,0,52,41.321V34.642a1.113,1.113,0,0,0-1.113-1.113M49.77,40.208H45.317V35.755H49.77Z" fill="#fff"/>
  </g>
</svg>
