<svg id="Grupo_145952" data-name="Grupo 145952" xmlns="http://www.w3.org/2000/svg" xmlns:xlink="http://www.w3.org/1999/xlink" width="112" height="112" viewBox="0 0 112 112">
  <defs>
    <clipPath id="clip-path">
      <rect id="Rectángulo_39191" data-name="Rectángulo 39191" width="112" height="112" fill="none"/>
    </clipPath>
  </defs>
  <g id="Grupo_145952-2" data-name="Grupo 145952" clip-path="url(#clip-path)">
    <path id="Trazado_188044" data-name="Trazado 188044" d="M56,0A56,56,0,1,1,0,56,56,56,0,0,1,56,0" fill="#039be5"/>
    <path id="Trazado_188045" data-name="Trazado 188045" d="M88.66,31.175,80.82,23.7a1.593,1.593,0,0,0-1.183-.582H48.231a1.666,1.666,0,0,0-1.664,1.664v5.108L35.5,31.786a1.64,1.64,0,0,0-1.33,1.891l.562,3.276c-3.6,1.21-7.292,2.458-10.858,3.739a1.647,1.647,0,0,0-.984,2.093L29.981,62.5a.973.973,0,1,0,1.831-.658L24.824,42.418c3.359-1.2,6.838-2.38,10.238-3.525L38.4,58.382l3.847,22.445a1.649,1.649,0,0,0,1.891,1.334l10.418-1.788,8.141-1.4-12.244,4.4L40.8,86.85l-7.5-20.857a.973.973,0,0,0-1.831.658l7.6,21.153a1.644,1.644,0,0,0,1.54,1.079,1.621,1.621,0,0,0,.553-.1l9.945-3.576L73.7,77.092l4.314-.739h9.53a1.668,1.668,0,0,0,1.664-1.667V32.271A1.4,1.4,0,0,0,88.66,31.175Zm-2.577.23H81.094c-.233,0-.779.006-.917-.132a.546.546,0,0,1-.07-.335L80.1,25.7Zm1.178,43H48.513V55.447a.973.973,0,0,0-1.946,0V74.685a1.667,1.667,0,0,0,1.664,1.668H66.5l-12.264,2.1L44.117,80.191,40.323,58.053l-4.186-24.4,10.43-1.788V50.933a.973.973,0,1,0,1.946,0V25.062H78.149l.013,5.879a2.316,2.316,0,0,0,.644,1.714,2.974,2.974,0,0,0,2.161.7h6.294Z" fill="#fff"/>
    <path id="Trazado_188046" data-name="Trazado 188046" d="M53.2,38.223a.973.973,0,0,0,.973.973H81.99a.973.973,0,1,0,0-1.946H54.175a.973.973,0,0,0-.973.973" fill="#fff"/>
    <path id="Trazado_188047" data-name="Trazado 188047" d="M81.99,44.161H54.175a.973.973,0,0,0,0,1.946H81.99a.973.973,0,0,0,0-1.946" fill="#fff"/>
    <path id="Trazado_188048" data-name="Trazado 188048" d="M81.99,51.072H54.175a.974.974,0,0,0,0,1.947H81.99a.974.974,0,0,0,0-1.947" fill="#fff"/>
    <path id="Trazado_188049" data-name="Trazado 188049" d="M81.99,57.984H54.175a.973.973,0,1,0,0,1.946H81.99a.973.973,0,0,0,0-1.946" fill="#fff"/>
    <path id="Trazado_188050" data-name="Trazado 188050" d="M81.99,64.895H54.175a.973.973,0,0,0,0,1.946H81.99a.973.973,0,0,0,0-1.946" fill="#fff"/>
  </g>
</svg>
