<svg id="Grupo_145951" data-name="Grupo 145951" xmlns="http://www.w3.org/2000/svg" xmlns:xlink="http://www.w3.org/1999/xlink" width="112" height="112" viewBox="0 0 112 112">
  <defs>
    <clipPath id="clip-path">
      <rect id="Rect치ngulo_39190" data-name="Rect치ngulo 39190" width="112" height="112" fill="none"/>
    </clipPath>
  </defs>
  <g id="Grupo_145951-2" data-name="Grupo 145951" clip-path="url(#clip-path)">
    <path id="Trazado_188026" data-name="Trazado 188026" d="M56,0A56,56,0,1,1,0,56,56,56,0,0,1,56,0" fill="#039be5"/>
    <path id="Trazado_188027" data-name="Trazado 188027" d="M56,78.917a1.034,1.034,0,0,1-.6-.195c-7.451-5.326-17.13-6.055-26.479-6.055a1.041,1.041,0,0,1-1.041-1.042V25.792a1.041,1.041,0,0,1,1.041-1.042c9.451,0,19.252.742,27.084,6.024,7.832-5.282,17.633-6.024,27.084-6.024a1.041,1.041,0,0,1,1.041,1.042V60.167H82.042V26.833c-9.022.059-18.262.928-25.437,6.052a1.039,1.039,0,0,1-1.21,0C48.22,27.764,38.98,26.9,29.958,26.833V70.584c9.126.058,18.5.937,26.042,6.02A28.971,28.971,0,0,1,60.8,74l.821,1.915a26.74,26.74,0,0,0-5.014,2.8,1.037,1.037,0,0,1-.6.2" fill="#fff"/>
    <path id="Trazado_188028" data-name="Trazado 188028" d="M50.381,66.332c-4.184-1.791-9.212-2.728-16.3-3.041l.091-2.083c7.354.324,12.605,1.315,17.032,3.208Z" fill="#fff"/>
    <path id="Trazado_188029" data-name="Trazado 188029" d="M50.381,61.124c-4.184-1.791-9.212-2.728-16.3-3.041L34.17,56c7.354.324,12.605,1.315,17.032,3.208Z" fill="#fff"/>
    <path id="Trazado_188030" data-name="Trazado 188030" d="M50.381,55.916c-4.184-1.791-9.212-2.728-16.3-3.041l.091-2.083C41.524,51.116,46.775,52.107,51.2,54Z" fill="#fff"/>
    <path id="Trazado_188031" data-name="Trazado 188031" d="M50.381,50.707c-4.184-1.791-9.212-2.728-16.3-3.041l.091-2.083c7.354.324,12.605,1.315,17.032,3.208Z" fill="#fff"/>
    <path id="Trazado_188032" data-name="Trazado 188032" d="M50.381,45.5c-4.184-1.791-9.212-2.728-16.3-3.041l.091-2.083c7.354.324,12.605,1.315,17.032,3.208Z" fill="#fff"/>
    <path id="Trazado_188033" data-name="Trazado 188033" d="M50.381,40.29c-4.184-1.79-9.212-2.727-16.3-3.04l.091-2.083c7.354.324,12.605,1.314,17.032,3.208Z" fill="#fff"/>
    <path id="Trazado_188034" data-name="Trazado 188034" d="M61.619,61.124,60.8,59.209C65.224,57.316,70.476,56.325,77.83,56l.091,2.083c-7.09.312-12.118,1.249-16.3,3.04" fill="#fff"/>
    <path id="Trazado_188035" data-name="Trazado 188035" d="M61.619,55.916,60.8,54c4.426-1.893,9.678-2.884,17.032-3.208l.091,2.083c-7.09.312-12.118,1.249-16.3,3.04" fill="#fff"/>
    <path id="Trazado_188036" data-name="Trazado 188036" d="M61.619,50.707,60.8,48.792c4.426-1.893,9.678-2.884,17.032-3.208l.091,2.083c-7.09.312-12.118,1.249-16.3,3.04" fill="#fff"/>
    <path id="Trazado_188037" data-name="Trazado 188037" d="M61.619,45.5,60.8,43.584c4.426-1.893,9.678-2.884,17.032-3.208l.091,2.083c-7.09.312-12.118,1.249-16.3,3.04" fill="#fff"/>
    <path id="Trazado_188038" data-name="Trazado 188038" d="M61.619,40.29,60.8,38.376c4.426-1.894,9.678-2.884,17.032-3.208l.091,2.083c-7.09.312-12.118,1.249-16.3,3.039" fill="#fff"/>
    <rect id="Rect치ngulo_39189" data-name="Rect치ngulo 39189" width="2.083" height="50" transform="translate(54.958 32.041)" fill="#fff"/>
    <path id="Trazado_188039" data-name="Trazado 188039" d="M62.25,83.084H27.875a5.215,5.215,0,0,1-5.209-5.208V34.125a5.215,5.215,0,0,1,5.209-5.208h1.041V31H27.875a3.125,3.125,0,0,0-3.125,3.125V77.876A3.125,3.125,0,0,0,27.875,81H62.25Z" fill="#fff"/>
    <path id="Trazado_188040" data-name="Trazado 188040" d="M89.334,63.292H87.251V34.125A3.125,3.125,0,0,0,84.126,31H83.084V28.917h1.042a5.214,5.214,0,0,1,5.208,5.208Z" fill="#fff"/>
    <path id="Trazado_188041" data-name="Trazado 188041" d="M77.875,87.25H73.708a1.041,1.041,0,0,1-1.041-1.041V83.64a10.191,10.191,0,0,1-1.687-.7l-1.818,1.818a1.042,1.042,0,0,1-1.472,0l-2.946-2.946a1.041,1.041,0,0,1,0-1.473l1.817-1.818a10.267,10.267,0,0,1-.7-1.686H63.292a1.042,1.042,0,0,1-1.042-1.042V71.625a1.041,1.041,0,0,1,1.042-1.041H65.86a10.277,10.277,0,0,1,.7-1.687l-1.817-1.818a1.041,1.041,0,0,1,0-1.473l2.946-2.945a1.04,1.04,0,0,1,1.472,0l1.818,1.817a10.277,10.277,0,0,1,1.687-.7V61.208a1.041,1.041,0,0,1,1.041-1.041h4.167a1.042,1.042,0,0,1,1.042,1.041v2.569a10.267,10.267,0,0,1,1.686.7l1.818-1.817a1.041,1.041,0,0,1,1.473,0l2.946,2.945a1.043,1.043,0,0,1,0,1.473L85.022,68.9a10.191,10.191,0,0,1,.7,1.687h2.569a1.041,1.041,0,0,1,1.041,1.041v4.167a1.042,1.042,0,0,1-1.041,1.042H85.723a10.18,10.18,0,0,1-.7,1.686l1.818,1.818a1.043,1.043,0,0,1,0,1.473l-2.946,2.946a1.043,1.043,0,0,1-1.473,0L80.6,82.939a10.18,10.18,0,0,1-1.686.7v2.569a1.042,1.042,0,0,1-1.042,1.041M74.75,85.167h2.083V82.844a1.043,1.043,0,0,1,.811-1.016,8.3,8.3,0,0,0,2.577-1.069,1.042,1.042,0,0,1,1.292.143l1.644,1.645,1.473-1.473-1.645-1.645a1.041,1.041,0,0,1-.143-1.291,8.305,8.305,0,0,0,1.075-2.577,1.042,1.042,0,0,1,1.01-.811H87.25V72.667H84.927a1.04,1.04,0,0,1-1.015-.811,8.328,8.328,0,0,0-1.07-2.577,1.041,1.041,0,0,1,.143-1.291l1.645-1.645L83.157,64.87l-1.644,1.645a1.044,1.044,0,0,1-1.291.145,8.312,8.312,0,0,0-2.578-1.071,1.043,1.043,0,0,1-.811-1.016V62.25H74.75v2.323a1.042,1.042,0,0,1-.81,1.016,8.307,8.307,0,0,0-2.579,1.071,1.042,1.042,0,0,1-1.29-.145L68.426,64.87l-1.473,1.473L68.6,67.988a1.042,1.042,0,0,1,.144,1.291,8.28,8.28,0,0,0-1.07,2.577,1.042,1.042,0,0,1-1.016.811H64.333V74.75h2.323a1.043,1.043,0,0,1,1.016.811,8.28,8.28,0,0,0,1.07,2.577,1.042,1.042,0,0,1-.144,1.291l-1.645,1.645,1.473,1.473L70.071,80.9a1.041,1.041,0,0,1,1.291-.143,8.335,8.335,0,0,0,2.578,1.075,1.04,1.04,0,0,1,.81,1.01Z" fill="#fff"/>
    <path id="Trazado_188042" data-name="Trazado 188042" d="M75.792,79.959a6.25,6.25,0,1,1,6.25-6.25,6.25,6.25,0,0,1-6.25,6.25m0-10.417a4.167,4.167,0,1,0,4.167,4.167,4.167,4.167,0,0,0-4.167-4.167" fill="#fff"/>
    <path id="Trazado_188043" data-name="Trazado 188043" d="M56,78.917H32.041A1.041,1.041,0,0,1,31,77.875v-6.25h2.083v5.209H56Z" fill="#fff"/>
  </g>
</svg>
