<svg xmlns="http://www.w3.org/2000/svg" xmlns:xlink="http://www.w3.org/1999/xlink" width="97.663" height="85.431" viewBox="0 0 97.663 85.431">
  <defs>
    <clipPath id="clip-path">
      <rect id="Rectángulo_39367" data-name="Rectángulo 39367" width="97.663" height="85.431" transform="translate(0 0)" fill="none"/>
    </clipPath>
  </defs>
  <g id="Grupo_146205" data-name="Grupo 146205" transform="translate(0 0)">
    <g id="Grupo_146204" data-name="Grupo 146204" clip-path="url(#clip-path)">
      <path id="Trazado_188512" data-name="Trazado 188512" d="M91.133,48.573l-8.254-3.247H53.58l-8.254,3.247a7.99,7.99,0,0,0-5.059,7.755L41.372,83.9H95.087l1.105-27.577a7.99,7.99,0,0,0-5.059-7.755" fill="#dbd9dc"/>
      <rect id="Rectángulo_39365" data-name="Rectángulo 39365" width="18.646" height="15.981" transform="translate(58.907 34.629)" fill="#b48764"/>
      <path id="Trazado_188513" data-name="Trazado 188513" d="M68.23,1.377a17.225,17.225,0,0,0-10.432,4s-5.549,0-5.549,6.659a49.742,49.742,0,0,0,1.332,10.612h30.63C86.875,7.994,80.549.711,68.23,1.377" fill="#5c414b"/>
      <path id="Trazado_188514" data-name="Trazado 188514" d="M60.239,17.148C55.347,11.031,57.8,5.373,57.8,5.373s-5.549,0-5.549,6.659A49.742,49.742,0,0,0,53.58,22.644h6.659Z" fill="#503441"/>
      <path id="Trazado_188515" data-name="Trazado 188515" d="M82.879,21.312H81.547l-2.612-3.157c-11.986,2.5-18.267-2.679-18.267-2.679C60.013,19.62,56,22.742,56,22.742l-2.464-1.43h0a2.65,2.65,0,0,0-.445.047,2.816,2.816,0,0,0-2.172,2.81v.965a2.8,2.8,0,0,0,2.13,2.782,2.634,2.634,0,0,0,.74.046,1.289,1.289,0,0,1,1.355,1.065,13.3,13.3,0,0,0,26.174.018,1.293,1.293,0,0,1,1.29-1.074h.274a2.664,2.664,0,0,0,2.664-2.664V23.975a2.664,2.664,0,0,0-2.664-2.663" fill="#c39772"/>
      <path id="Trazado_188516" data-name="Trazado 188516" d="M89.215,57.635l5.794-5.794a7.959,7.959,0,0,1,1.183,4.488L95.088,83.9H86.875V63.285a7.987,7.987,0,0,1,2.34-5.65" fill="#edebed"/>
      <path id="Trazado_188517" data-name="Trazado 188517" d="M70.707,50.671H65.353L64.015,83.906h8.03Z" fill="#e2af23"/>
      <path id="Trazado_188518" data-name="Trazado 188518" d="M71,57.911l-.291-7.239H65.353l-.292,7.239Z" fill="#e2af23"/>
      <path id="Trazado_188519" data-name="Trazado 188519" d="M68.23,50.652,57.576,41.33l-3.995,3.995,6.188,9.283a2.664,2.664,0,0,0,4.1.4Z" fill="#edebed"/>
      <path id="Trazado_188520" data-name="Trazado 188520" d="M68.23,50.652,78.884,41.33l3.995,3.995-6.188,9.283a2.664,2.664,0,0,1-4.1.4Z" fill="#edebed"/>
      <path id="Trazado_188521" data-name="Trazado 188521" d="M70.87,39.685A13.323,13.323,0,0,1,60.239,26.638v-9.56A14.719,14.719,0,0,1,56,22.742l-2.464-1.43h0a2.65,2.65,0,0,0-.445.047,2.814,2.814,0,0,0-2.171,2.81v.964a2.8,2.8,0,0,0,2.129,2.783,2.634,2.634,0,0,0,.74.046,1.289,1.289,0,0,1,1.355,1.065A13.269,13.269,0,0,0,70.87,39.685" fill="#b48764"/>
      <path id="Trazado_188522" data-name="Trazado 188522" d="M44.6,56.411l-7.185-3.136H13.425L6.24,56.411a7.991,7.991,0,0,0-4.787,7.662L2.294,83.9H48.542l.841-19.832A7.991,7.991,0,0,0,44.6,56.411" fill="#1565c0"/>
      <rect id="Rectángulo_39366" data-name="Rectángulo 39366" width="13.318" height="13.318" transform="translate(18.758 43.951)" fill="#fad7a5"/>
      <path id="Trazado_188523" data-name="Trazado 188523" d="M25.417,1.335a7.99,7.99,0,1,1-7.991,7.991,7.991,7.991,0,0,1,7.991-7.991" fill="#deaf73"/>
      <path id="Trazado_188524" data-name="Trazado 188524" d="M25.417,7.993c8.826,0,15.981,6.858,15.981,15.316S34.243,38.625,25.417,38.625,9.436,31.768,9.436,23.309,16.591,7.993,25.417,7.993" fill="#d59f63"/>
      <path id="Trazado_188525" data-name="Trazado 188525" d="M20.091,25.307c-5.327-5.327-6.123-9.92-6-12.8a14.952,14.952,0,0,0-4.656,10.8A14.722,14.722,0,0,0,11.726,31.2Z" fill="#cd915a"/>
      <path id="Trazado_188526" data-name="Trazado 188526" d="M40.6,28.026a7.106,7.106,0,0,0-.764-.055,2.663,2.663,0,0,1-1.883-.781L36.121,25.8A25.8,25.8,0,0,1,18.154,22.1c-.828,2.421-2.293,4.269-4.906,6.69l-2.525-.824h0a2.673,2.673,0,0,0-.447.047,2.817,2.817,0,0,0-2.17,2.81v.965a2.8,2.8,0,0,0,2.129,2.781,2.613,2.613,0,0,0,.742.047,1.286,1.286,0,0,1,1.353,1.064A13.3,13.3,0,0,0,38.5,35.72a1.3,1.3,0,0,1,1.361-1.093,2.677,2.677,0,0,0,.866-.064,2.758,2.758,0,0,0,2.018-2.786c-.015-.6-.015-1.2-.015-1.2A2.779,2.779,0,0,0,40.6,28.026" fill="#ffe1b4"/>
      <path id="Trazado_188527" data-name="Trazado 188527" d="M8.607,64,3.741,58.16a7.966,7.966,0,0,0-2.288,5.912L2.293,83.9h8.475V69.967A9.322,9.322,0,0,0,8.607,64" fill="#1565c0"/>
      <path id="Trazado_188528" data-name="Trazado 188528" d="M42.228,64l4.866-5.839a7.966,7.966,0,0,1,2.288,5.912L48.542,83.9H40.067V69.967A9.322,9.322,0,0,1,42.228,64" fill="#1565c0"/>
      <path id="Trazado_188529" data-name="Trazado 188529" d="M17.427,33.3v-9.51A19.213,19.213,0,0,1,13.249,28.8l-2.526-.824h0a2.575,2.575,0,0,0-.447.048A2.814,2.814,0,0,0,8.1,30.828v.965a2.8,2.8,0,0,0,2.128,2.781,2.579,2.579,0,0,0,.742.047,1.286,1.286,0,0,1,1.354,1.064,13.269,13.269,0,0,0,15.73,10.66A13.323,13.323,0,0,1,17.427,33.3" fill="#fad7a5"/>
      <path id="Trazado_188530" data-name="Trazado 188530" d="M25.045,57.136,17.014,49.1,13,53.121l4.952,8.038a1.339,1.339,0,0,0,2.009.316Z" fill="#1565c0"/>
      <path id="Trazado_188531" data-name="Trazado 188531" d="M25.045,57.136,33.076,49.1l4.015,4.016-4.952,8.038a1.339,1.339,0,0,1-2.009.316Z" fill="#1565c0"/>
      <path id="Trazado_188532" data-name="Trazado 188532" d="M60.1,62.875H54.741a1.431,1.431,0,0,0,0,2.861H60.1a1.431,1.431,0,1,0,0-2.861" fill="#09394c"/>
      <path id="Trazado_188533" data-name="Trazado 188533" d="M91.607,47.559l-7.79-3-3.972-3.971a1.418,1.418,0,0,0-.919-.415V37.007a14.753,14.753,0,0,0,3.742-7.371,4.086,4.086,0,0,0,1-.08,4.232,4.232,0,0,0,3.285-4.2V24.314a4.287,4.287,0,0,0-1.26-3.043C86.96,14.4,85.919,8.8,82.674,5.053,79.535,1.429,74.477-.3,68.049.044A19.162,19.162,0,0,0,57.061,4.1a7.537,7.537,0,0,0-2.944,1c-1.589.953-3.483,2.956-3.483,7.082a35.7,35.7,0,0,0,.992,8.31,4.242,4.242,0,0,0-2.331,3.84v1.027a4.234,4.234,0,0,0,3.285,4.2,4.1,4.1,0,0,0,1,.08,14.749,14.749,0,0,0,3.742,7.371v3.161a1.417,1.417,0,0,0-.919.414l-3.972,3.972-7.791,3a9.447,9.447,0,0,0-1.913,1,1.43,1.43,0,1,0,1.608,2.366,6.574,6.574,0,0,1,1.335-.7L52.9,47.44l5.528,8.292a4.092,4.092,0,0,0,3.013,1.809c.136.013.273.02.409.02a4.079,4.079,0,0,0,2.013-.533L62.681,83.937a1.431,1.431,0,0,0,1.366,1.492h.065a1.43,1.43,0,0,0,1.428-1.367l1.1-24.977h2.97l1.1,24.977A1.429,1.429,0,0,0,72.14,85.43H72.2a1.431,1.431,0,0,0,1.366-1.492L72.384,57.028a4.079,4.079,0,0,0,2.013.533c.136,0,.273-.007.41-.02a4.1,4.1,0,0,0,3.013-1.809l5.527-8.292,7.23,2.789a6.6,6.6,0,0,1,2.574,1.793L88.2,56.968a9.4,9.4,0,0,0-2.771,6.69V84a1.431,1.431,0,1,0,2.861,0V63.658a6.558,6.558,0,0,1,1.933-4.666l4.342-4.342a6.622,6.622,0,0,1,.228,2L93.689,83.942A1.431,1.431,0,0,0,95.06,85.43h.059a1.432,1.432,0,0,0,1.429-1.373l1.108-27.292a9.459,9.459,0,0,0-6.049-9.207m-23.481,1.5-7.939-6.946V39.378a14.806,14.806,0,0,0,15.877,0v2.738ZM53.487,26.776a1.22,1.22,0,0,1-.333-.023,1.386,1.386,0,0,1-1-1.4V24.33a1.356,1.356,0,0,1,1.01-1.361,1.241,1.241,0,0,1,1.224.469,1.995,1.995,0,0,0,2.742.43,10.371,10.371,0,0,0,2.346-2.293,1.431,1.431,0,0,0-2.3-1.708,7.5,7.5,0,0,1-1.114,1.2,4.084,4.084,0,0,0-1.551-.828,32.88,32.88,0,0,1-1.022-8.063c0-2.191.675-3.731,2.007-4.576a4.651,4.651,0,0,1,2.139-.686,1.443,1.443,0,0,0,.987-.4A16.112,16.112,0,0,1,68.2,2.9c5.513-.3,9.769,1.094,12.307,4.025C83.069,9.881,83.921,14.417,83,20.095a6.134,6.134,0,0,0-1.22.085l-1.344-3.228a1.433,1.433,0,0,0-1.683-.834C78.617,16.153,65.4,19.5,59.866,12.6A1.431,1.431,0,0,0,57.635,14.4c5.657,7.043,16.882,5.511,20.618,4.763l1.039,2.5A2.354,2.354,0,0,0,82.01,23.05a3.081,3.081,0,0,1,1.07-.079A1.349,1.349,0,0,1,84.1,24.314v1.043a1.386,1.386,0,0,1-1,1.4,1.217,1.217,0,0,1-.333.023,2.787,2.787,0,0,0-2.9,2.27,11.938,11.938,0,0,1-23.483,0,2.785,2.785,0,0,0-2.9-2.27m8.24,27.918a1.229,1.229,0,0,1-.914-.549l-5.569-8.353,2.239-2.24,8.55,7.481-3.3,3.3a1.228,1.228,0,0,1-1,.359m5.04,1.531.086-1.967,1.272-1.272L69.4,54.258l.086,1.967Zm8.672-2.08a1.246,1.246,0,0,1-1.918.19l-3.3-3.3,8.549-7.481,2.24,2.239Z" fill="#09394c"/>
      <path id="Trazado_188534" data-name="Trazado 188534" d="M45.368,55.057l-6.985-3.049L34.564,48.19a1.422,1.422,0,0,0-.918-.415V45.524A14.78,14.78,0,0,0,40.064,35.9a4.168,4.168,0,0,0,1.13-.108,4.259,4.259,0,0,0,3.158-4.171V30.583a4.265,4.265,0,0,0-1.833-3.518,16.173,16.173,0,0,0,.495-3.964A16.68,16.68,0,0,0,34.98,8.956,9.275,9.275,0,0,0,25.521,0a9.276,9.276,0,0,0-9.458,8.956A16.683,16.683,0,0,0,8.031,23.1a16.164,16.164,0,0,0,.492,3.952A4.275,4.275,0,0,0,6.691,30.6v1.028A4.26,4.26,0,0,0,9.851,35.8a4.153,4.153,0,0,0,1.129.108A14.771,14.771,0,0,0,17.4,45.524v2.251a1.424,1.424,0,0,0-.92.415l-3.817,3.818L5.676,55.057A9.52,9.52,0,0,0,.009,64.129L.854,84.061a1.429,1.429,0,0,0,1.427,1.37h.063a1.43,1.43,0,0,0,1.368-1.49L2.867,64.008a6.586,6.586,0,0,1,.907-3.6l3.754,4.506a7.952,7.952,0,0,1,1.84,5.082V84a1.431,1.431,0,0,0,2.861,0V69.993a10.822,10.822,0,0,0-2.5-6.914l-3.991-4.79A6.539,6.539,0,0,1,6.82,57.68l6.089-2.658,4.3,6.983a2.765,2.765,0,0,0,1.927,1.283,2.734,2.734,0,0,0,.432.034,2.763,2.763,0,0,0,1.8-.663l2.726-2.326V84a1.431,1.431,0,0,0,2.862,0V60.333l2.726,2.326a2.76,2.76,0,0,0,1.8.663,2.863,2.863,0,0,0,.431-.033,2.766,2.766,0,0,0,1.927-1.283l4.3-6.984,6.088,2.658a6.459,6.459,0,0,1,1.085.609l-3.99,4.79a10.819,10.819,0,0,0-2.505,6.914V84a1.431,1.431,0,1,0,2.862,0V69.993a7.952,7.952,0,0,1,1.84-5.082L47.271,60.4a6.606,6.606,0,0,1,.908,3.6L47.333,83.94A1.429,1.429,0,0,0,48.7,85.43l.062,0a1.433,1.433,0,0,0,1.429-1.371l.843-19.932a9.519,9.519,0,0,0-5.668-9.072M25.522,2.861a6.555,6.555,0,0,1,6.371,4.573,18.134,18.134,0,0,0-12.742,0,6.555,6.555,0,0,1,6.371-4.573M13.781,35.315a2.788,2.788,0,0,0-2.9-2.271,1.228,1.228,0,0,1-.374-.031,1.4,1.4,0,0,1-.956-1.387V30.6a1.357,1.357,0,0,1,1.009-1.361,1.246,1.246,0,0,1,1.224.469,1.993,1.993,0,0,0,2.741.431,10.374,10.374,0,0,0,2.316-2.253,1.431,1.431,0,1,0-2.288-1.718,7.556,7.556,0,0,1-1.091,1.174,4.1,4.1,0,0,0-2.159-.951,13.275,13.275,0,0,1-.414-3.288c0-7.7,6.563-13.961,14.63-13.961S40.153,15.4,40.153,23.1a13.28,13.28,0,0,1-.413,3.282,6.546,6.546,0,0,0-1.113.184l-1.076-.885a2.747,2.747,0,0,0-1.909-.626c-2.1.125-12.871.409-18.4-6.2a1.431,1.431,0,0,0-2.2,1.835c2.725,3.261,6.722,5.467,11.879,6.555a34.976,34.976,0,0,0,8.834.673L37.44,29.3a1.428,1.428,0,0,0,1.627.132,3.155,3.155,0,0,1,1.41-.187,1.348,1.348,0,0,1,1.014,1.343v1.043a1.4,1.4,0,0,1-.956,1.387,1.228,1.228,0,0,1-.374.031,2.79,2.79,0,0,0-2.9,2.271,11.938,11.938,0,0,1-23.483,0m11.741,12.64a14.786,14.786,0,0,0,5.263-.968v2.96l-5.263,5.261L20.26,49.947v-2.96a14.776,14.776,0,0,0,5.262.968M19.59,60.413l-4.3-6.984,2.2-2.205,5.925,5.925Zm11.865,0-3.827-3.264,5.925-5.925,2.2,2.205Z" fill="#09394c"/>
      <path id="Trazado_188535" data-name="Trazado 188535" d="M20.169,69.185H16.154a1.431,1.431,0,1,0,0,2.861h4.015a1.431,1.431,0,1,0,0-2.861" fill="#09394c"/>
    </g>
  </g>
</svg>
