<svg id="Grupo_145950" data-name="Grupo 145950" xmlns="http://www.w3.org/2000/svg" xmlns:xlink="http://www.w3.org/1999/xlink" width="112" height="112" viewBox="0 0 112 112">
  <defs>
    <clipPath id="clip-path">
      <rect id="Rectángulo_39188" data-name="Rectángulo 39188" width="112" height="112" fill="none"/>
    </clipPath>
  </defs>
  <g id="Grupo_145950-2" data-name="Grupo 145950" clip-path="url(#clip-path)">
    <path id="Trazado_188022" data-name="Trazado 188022" d="M56,0A56,56,0,1,1,0,56,56,56,0,0,1,56,0" fill="#039be5"/>
    <path id="Trazado_188023" data-name="Trazado 188023" d="M85.147,24.954H26.855a3.935,3.935,0,0,0-3.931,3.931V69.536a3.935,3.935,0,0,0,3.931,3.931H47.322c-.33,4.746-2.257,8.591-3.7,13.655l-.208.727h-13.3a1.438,1.438,0,1,0,0,2.876H81.887a1.438,1.438,0,0,0,0-2.876h-13.3l-.208-.727c-1.447-5.066-3.373-8.909-3.7-13.655H85.147a3.936,3.936,0,0,0,3.931-3.931V28.885a3.936,3.936,0,0,0-3.931-3.931M26.855,27.83H85.147A1.056,1.056,0,0,1,86.2,28.885V61.962H25.8V28.885A1.056,1.056,0,0,1,26.855,27.83ZM65.6,87.849H46.4c1.439-5.009,3.476-9.1,3.8-14.382H61.8c.324,5.281,2.364,9.379,3.8,14.382M85.147,70.591H26.855A1.056,1.056,0,0,1,25.8,69.536v-4.7H86.2v4.7a1.056,1.056,0,0,1-1.055,1.055" fill="#fff"/>
    <path id="Trazado_188024" data-name="Trazado 188024" d="M54.563,82.1h2.876a1.438,1.438,0,1,0,0-2.876H54.563a1.438,1.438,0,1,0,0,2.876" fill="#fff"/>
    <path id="Trazado_188025" data-name="Trazado 188025" d="M35.868,60.564a1.438,1.438,0,0,0,.886-.305,19.622,19.622,0,0,1,10.973-3.593,16.775,16.775,0,0,1,2.056.127c3.794.469,6.338-3.569,6.51-7.356L75.625,36.808a4.315,4.315,0,1,0-4.734-7.215L51.682,42.206c-2.578-.844-5.361.066-7.62,1.548-3.556,2.334-8.9,13.494-9.495,14.759A1.439,1.439,0,0,0,35.868,60.564ZM72.469,32a1.438,1.438,0,0,1,1.581,2.4l-18.2,11.892a6.141,6.141,0,0,0-.625-1.26,7.954,7.954,0,0,0-.89-1.126ZM45.64,46.159a7.477,7.477,0,0,1,3.962-1.4,3.676,3.676,0,0,1,3.215,1.851,4.205,4.205,0,0,1,.6,2.076c0,.04,0,.079.007.118a6.832,6.832,0,0,1-.8,3.379c-.287.532-1.082,1.768-2.263,1.768a1.781,1.781,0,0,1-.229-.014,21.077,21.077,0,0,0-10.868,1.634c2.142-4.024,4.79-8.375,6.372-9.413" fill="#fff"/>
  </g>
</svg>
