<svg id="Grupo_145949" data-name="Grupo 145949" xmlns="http://www.w3.org/2000/svg" xmlns:xlink="http://www.w3.org/1999/xlink" width="112" height="112" viewBox="0 0 112 112">
  <defs>
    <clipPath id="clip-path">
      <rect id="Rectángulo_39187" data-name="Rectángulo 39187" width="112" height="112" fill="none"/>
    </clipPath>
  </defs>
  <g id="Grupo_145949-2" data-name="Grupo 145949" clip-path="url(#clip-path)">
    <path id="Trazado_188008" data-name="Trazado 188008" d="M56,0A56,56,0,1,1,0,56,56,56,0,0,1,56,0" fill="#039be5"/>
    <path id="Trazado_188009" data-name="Trazado 188009" d="M38.754,57.84H50.193l-1.437,4.311H46.3v2.156H65.7V62.151H63.244L61.807,57.84H73.246a3.238,3.238,0,0,0,3.234-3.234V28.737A3.238,3.238,0,0,0,73.246,25.5H38.754a3.238,3.238,0,0,0-3.234,3.234V54.606a3.238,3.238,0,0,0,3.234,3.234m12.274,4.311,1.437-4.311h7.07l1.437,4.311ZM37.676,28.737a1.079,1.079,0,0,1,1.078-1.078H73.246a1.078,1.078,0,0,1,1.078,1.078V51.372H37.676Zm0,24.791H74.324v1.078a1.079,1.079,0,0,1-1.078,1.078H38.754a1.08,1.08,0,0,1-1.078-1.078Z" fill="#fff"/>
    <path id="Trazado_188010" data-name="Trazado 188010" d="M47.377,71.853a3.237,3.237,0,0,0-3.234-3.234H29.053a3.237,3.237,0,0,0-3.234,3.234V83.709H23.663v3.234A3.239,3.239,0,0,0,26.9,90.177H46.3a3.238,3.238,0,0,0,3.234-3.234V83.709H47.377Zm-19.4,0a1.079,1.079,0,0,1,1.078-1.078h15.09a1.078,1.078,0,0,1,1.078,1.078V83.709H27.975Zm19.4,15.09A1.08,1.08,0,0,1,46.3,88.021H26.9a1.08,1.08,0,0,1-1.078-1.078V85.865H47.377Z" fill="#fff"/>
    <path id="Trazado_188011" data-name="Trazado 188011" d="M60.312,72.744a3.234,3.234,0,1,0-2.156,0v7.1l2.472,2.471,1.524-1.524-1.84-1.84Zm-1.078-1.97A1.078,1.078,0,1,1,60.312,69.7a1.078,1.078,0,0,1-1.078,1.078" fill="#fff"/>
    <path id="Trazado_188012" data-name="Trazado 188012" d="M86.181,83.709V71.853a3.237,3.237,0,0,0-3.234-3.234H67.857a3.237,3.237,0,0,0-3.234,3.234V83.709H62.467v3.234A3.238,3.238,0,0,0,65.7,90.177H85.1a3.238,3.238,0,0,0,3.234-3.234V83.709Zm-19.4-11.856a1.079,1.079,0,0,1,1.078-1.078h15.09a1.078,1.078,0,0,1,1.078,1.078V83.709H66.779Zm19.4,15.09A1.08,1.08,0,0,1,85.1,88.021H65.7a1.08,1.08,0,0,1-1.078-1.078V85.865H86.181Z" fill="#fff"/>
    <path id="Trazado_188013" data-name="Trazado 188013" d="M29.053,66.463a3.233,3.233,0,0,0,1.078-6.282V39.962l2.918-2.918L31.524,35.52l-3.549,3.549V60.181a3.233,3.233,0,0,0,1.078,6.282m0-4.312a1.078,1.078,0,1,1-1.078,1.078,1.078,1.078,0,0,1,1.078-1.078" fill="#fff"/>
    <path id="Trazado_188014" data-name="Trazado 188014" d="M81.869,60.181a3.234,3.234,0,1,0,2.156,0V39.069L80.476,35.52l-1.525,1.524,2.918,2.918Zm1.078,1.97a1.078,1.078,0,1,1-1.078,1.078,1.078,1.078,0,0,1,1.078-1.078" fill="#fff"/>
    <path id="Trazado_188015" data-name="Trazado 188015" d="M63.243,42.088,65.7,41.5V37.532l-2.458-.589-.3-.728,1.325-2.162-2.8-2.8L59.3,32.574l-.728-.3-.589-2.457H54.016l-.589,2.457-.726.3-2.164-1.325-2.8,2.8,1.325,2.162-.3.728-2.458.589V41.5l2.458.589.3.728-1.325,2.162,2.8,2.8L52.7,46.457l.727.3.589,2.457h3.967l.589-2.457.727-.3,2.163,1.325,2.8-2.8-1.325-2.162Zm-1.7,2.567-.4.4-1.65-1.011-2.757,1.143-.448,1.873h-.568l-.449-1.873L52.51,44.045l-1.649,1.011-.4-.4,1.012-1.65-1.144-2.757L48.454,39.8v-.567l1.874-.449,1.143-2.757-1.012-1.65.4-.4,1.649,1.011,2.757-1.143.449-1.873h.568l.448,1.873,2.757,1.143,1.65-1.011.4.4-1.012,1.65,1.144,2.757,1.872.449V39.8l-1.874.449-1.142,2.757Z" fill="#fff"/>
    <path id="Trazado_188016" data-name="Trazado 188016" d="M56,36.282a3.234,3.234,0,1,0,3.234,3.234A3.233,3.233,0,0,0,56,36.282m0,4.311a1.077,1.077,0,1,1,1.078-1.077A1.078,1.078,0,0,1,56,40.593" fill="#fff"/>
    <path id="Trazado_188017" data-name="Trazado 188017" d="M44.143,39.516a11.834,11.834,0,0,1,3.019-7.9l-1.607-1.438a14.033,14.033,0,0,0-2.77,14.013l2.032-.719a11.821,11.821,0,0,1-.674-3.952" fill="#fff"/>
    <path id="Trazado_188018" data-name="Trazado 188018" d="M43.863,46.523a14.068,14.068,0,0,0,1.693,2.335l1.606-1.438a11.936,11.936,0,0,1-1.433-1.976Z" fill="#fff"/>
    <path id="Trazado_188019" data-name="Trazado 188019" d="M67.182,35.563A11.879,11.879,0,0,1,64.838,47.42l1.606,1.437a14.034,14.034,0,0,0,2.771-14.013Z" fill="#fff"/>
    <path id="Trazado_188020" data-name="Trazado 188020" d="M68.137,32.509a14.1,14.1,0,0,0-1.628-2.262l-1.616,1.427a11.958,11.958,0,0,1,1.378,1.914Z" fill="#fff"/>
    <path id="Trazado_188021" data-name="Trazado 188021" d="M53.844,76.349v-7.1l-2.472-2.472L49.848,68.3l1.84,1.84v6.206a3.234,3.234,0,1,0,2.156,0m-1.078,4.126A1.078,1.078,0,1,1,53.844,79.4a1.078,1.078,0,0,1-1.078,1.078" fill="#fff"/>
  </g>
</svg>
