<svg id="Grupo_145926" data-name="Grupo 145926" xmlns="http://www.w3.org/2000/svg" xmlns:xlink="http://www.w3.org/1999/xlink" width="230.513" height="171.545" viewBox="0 0 230.513 171.545">
  <defs>
    <clipPath id="clip-path">
      <rect id="Rectángulo_39137" data-name="Rectángulo 39137" width="230.513" height="171.545" fill="none"/>
    </clipPath>
  </defs>
  <rect id="Rectángulo_39134" data-name="Rectángulo 39134" width="123.365" height="123.365" fill="#ffca28"/>
  <rect id="Rectángulo_39135" data-name="Rectángulo 39135" width="113.987" height="110.147" transform="translate(114.246 59.195)" fill="none" stroke="#ffca28" stroke-width="1"/>
  <g id="Grupo_145925" data-name="Grupo 145925">
    <g id="Grupo_145924" data-name="Grupo 145924" clip-path="url(#clip-path)">
      <path id="Trazado_186663" data-name="Trazado 186663" d="M42.544,69.349l3.015-5.855a1.677,1.677,0,0,1,.326-.583,22.163,22.163,0,0,0,4.735-.2,1.667,1.667,0,0,1,1.231.854l4.087,5.166a1.385,1.385,0,0,0,1.875.572l5.858-3.121a1.385,1.385,0,0,0,.572-1.875l-2.009-6.272a1.658,1.658,0,0,1-.181-.646A22.2,22.2,0,0,0,65.258,53.9a1.667,1.667,0,0,1,1.474-.267l6.542.765a1.388,1.388,0,0,0,1.732-.922l1.935-6.349A1.388,1.388,0,0,0,76.02,45.4L70.164,42.38a1.677,1.677,0,0,1-.583-.326,22.1,22.1,0,0,0-.2-4.735,1.669,1.669,0,0,1,.854-1.231L75.4,32a1.387,1.387,0,0,0,.572-1.877l-3.12-5.857a1.386,1.386,0,0,0-1.876-.572L64.7,25.7a1.658,1.658,0,0,1-.646.181,22.106,22.106,0,0,0-3.488-3.2,1.67,1.67,0,0,1-.267-1.474l.765-6.542a1.388,1.388,0,0,0-.921-1.731L53.8,11a1.387,1.387,0,0,0-1.731.923L49.05,17.775a1.677,1.677,0,0,1-.326.583,22.163,22.163,0,0,0-4.735.2,1.664,1.664,0,0,1-1.231-.854L38.673,12.54a1.387,1.387,0,0,0-1.876-.572l-5.858,3.12a1.388,1.388,0,0,0-.572,1.877l2.008,6.272a1.649,1.649,0,0,1,.181.645,22.243,22.243,0,0,0-3.2,3.488,1.667,1.667,0,0,1-1.474.267l-6.542-.765A1.387,1.387,0,0,0,19.6,27.8l-1.936,6.348a1.387,1.387,0,0,0,.922,1.731l5.855,3.015a1.668,1.668,0,0,1,.583.326,22.163,22.163,0,0,0,.2,4.735,1.665,1.665,0,0,1-.853,1.231L19.21,49.267a1.386,1.386,0,0,0-.571,1.875h0L21.759,57a1.386,1.386,0,0,0,1.876.573l6.272-2.009a1.649,1.649,0,0,1,.645-.181,22.2,22.2,0,0,0,3.488,3.205,1.667,1.667,0,0,1,.267,1.474L33.542,66.6a1.387,1.387,0,0,0,.923,1.731l6.348,1.936a1.387,1.387,0,0,0,1.731-.922m-4.363-31.5a9.538,9.538,0,1,1,6.342,11.9,9.537,9.537,0,0,1-6.342-11.9" fill="#73a3d9"/>
      <path id="Trazado_186664" data-name="Trazado 186664" d="M186.011,107.679l4.685-.284a1.2,1.2,0,0,1,.476-.012,15.828,15.828,0,0,0,1.847,2.829,1.185,1.185,0,0,1-.075,1.065l-1.679,4.384a.989.989,0,0,0,.332,1.358l4.044,2.454a.989.989,0,0,0,1.358-.332l3.113-3.514a1.186,1.186,0,0,1,.33-.346,15.823,15.823,0,0,0,3.3.695,1.188,1.188,0,0,1,.7.806l1.912,4.288a.989.989,0,0,0,1.2.725l4.6-1.124a.989.989,0,0,0,.725-1.195l-.283-4.686a1.16,1.16,0,0,1-.012-.476,15.747,15.747,0,0,0,2.828-1.847,1.192,1.192,0,0,1,1.065.075l4.384,1.68a.989.989,0,0,0,1.358-.332l2.454-4.045a.989.989,0,0,0-.332-1.358l-3.514-3.112a1.2,1.2,0,0,1-.346-.33,15.823,15.823,0,0,0,.7-3.3,1.186,1.186,0,0,1,.806-.7l4.288-1.913a.988.988,0,0,0,.725-1.195l-1.124-4.6a.989.989,0,0,0-1.195-.725l-4.686.283a1.2,1.2,0,0,1-.476.012,15.762,15.762,0,0,0-1.846-2.828,1.185,1.185,0,0,1,.075-1.065l1.679-4.384a.989.989,0,0,0-.332-1.358l-4.045-2.455a.989.989,0,0,0-1.358.333l-3.112,3.513a1.186,1.186,0,0,1-.33.346,15.823,15.823,0,0,0-3.3-.695,1.186,1.186,0,0,1-.7-.806l-1.912-4.287a.989.989,0,0,0-1.2-.726l-4.6,1.125a.988.988,0,0,0-.725,1.195l.283,4.685a1.2,1.2,0,0,1,.012.476,15.857,15.857,0,0,0-2.828,1.847,1.188,1.188,0,0,1-1.065-.075l-4.384-1.679a.988.988,0,0,0-1.358.332l-2.454,4.044a.988.988,0,0,0,.332,1.358l3.513,3.113a1.174,1.174,0,0,1,.346.33,15.887,15.887,0,0,0-.7,3.3,1.188,1.188,0,0,1-.806.7l-4.287,1.912a.989.989,0,0,0-.726,1.195l1.125,4.6a.989.989,0,0,0,1.2.725m17.714-14.137a6.8,6.8,0,1,1-4.988,8.22,6.8,6.8,0,0,1,4.988-8.22" fill="#73a3d9"/>
      <path id="Trazado_186665" data-name="Trazado 186665" d="M150.059,152.621H88.267l5.149-51.778h51.493Z" fill="#104c90"/>
      <rect id="Rectángulo_39136" data-name="Rectángulo 39136" width="76.83" height="4.505" transform="translate(80.746 152.621)" fill="#104c90"/>
      <path id="Trazado_186666" data-name="Trazado 186666" d="M195.129,25.45H43.184a7.523,7.523,0,0,0-7.5,7.508v96.209a7.525,7.525,0,0,0,7.5,7.506H195.129a7.527,7.527,0,0,0,7.508-7.506V32.958a7.525,7.525,0,0,0-7.508-7.508" fill="#104c90"/>
      <path id="Trazado_186667" data-name="Trazado 186667" d="M86,95.687,121.47,68.223l31.469,7.438s35.309-26.89,43.67-33.47V37.945a4.516,4.516,0,0,0-4.511-4.506H46.21a4.5,4.5,0,0,0-4.5,4.506v63.466L60.249,85.96Z" fill="#ffd553"/>
      <path id="Trazado_186668" data-name="Trazado 186668" d="M152.939,75.661,121.47,68.223,86,95.687,60.248,85.96,41.707,101.411v17.06a4.519,4.519,0,0,0,4.5,4.511H192.1a4.531,4.531,0,0,0,4.511-4.511V42.191c-8.36,6.579-42.915,33.721-43.669,33.47" fill="#ffca28"/>
      <path id="Trazado_186669" data-name="Trazado 186669" d="M157.422,75.214A4.783,4.783,0,1,0,152.64,80a4.783,4.783,0,0,0,4.782-4.782" fill="#26a69a"/>
      <path id="Trazado_186670" data-name="Trazado 186670" d="M126.868,68.754a4.783,4.783,0,1,0-4.783,4.782,4.784,4.784,0,0,0,4.783-4.782" fill="#26a69a"/>
      <path id="Trazado_186671" data-name="Trazado 186671" d="M90.42,95.363a4.782,4.782,0,1,0-4.782,4.782,4.783,4.783,0,0,0,4.782-4.782" fill="#26a69a"/>
      <path id="Trazado_186672" data-name="Trazado 186672" d="M64.923,87.109a4.782,4.782,0,1,0-4.783,4.782,4.783,4.783,0,0,0,4.783-4.782" fill="#26a69a"/>
      <path id="Trazado_186673" data-name="Trazado 186673" d="M152.706,73.762l-30.823-7.286a1.787,1.787,0,0,0-1.512.328L85.691,93.653,60.883,84.281a1.789,1.789,0,0,0-1.77.289L41.707,98.782v4.224a1.762,1.762,0,0,0,.964-.376L60.583,88.006l24.778,9.361a1.8,1.8,0,0,0,1.734-.26l34.8-26.939,30.48,7.2c1.112.366,1.732.544,44.236-32.2V40.634c-17.453,13.436-40.106,30.7-43.9,33.128" fill="#26a69a"/>
    </g>
  </g>
</svg>
