<svg id="Grupo_145947" data-name="Grupo 145947" xmlns="http://www.w3.org/2000/svg" xmlns:xlink="http://www.w3.org/1999/xlink" width="112" height="112" viewBox="0 0 112 112">
  <defs>
    <clipPath id="clip-path">
      <rect id="Rectángulo_39185" data-name="Rectángulo 39185" width="112" height="112" fill="none"/>
    </clipPath>
  </defs>
  <g id="Grupo_145947-2" data-name="Grupo 145947" clip-path="url(#clip-path)">
    <path id="Trazado_187986" data-name="Trazado 187986" d="M56,0A56,56,0,1,1,0,56,56,56,0,0,1,56,0" fill="#039be5"/>
    <path id="Trazado_187987" data-name="Trazado 187987" d="M69.474,53.283l-3.305,3.305-1.3-1.3a1,1,0,0,0-1.419,1.419l2.007,2.007a1,1,0,0,0,1.419,0L70.893,54.7a1,1,0,0,0-1.419-1.419" fill="#fff"/>
    <path id="Trazado_187988" data-name="Trazado 187988" d="M65.46,50.688a1,1,0,0,0,1.419,0l4.015-4.014a1,1,0,0,0-1.42-1.42l-3.3,3.3-1.3-1.3a1,1,0,0,0-1.419,1.419Z" fill="#fff"/>
    <path id="Trazado_187989" data-name="Trazado 187989" d="M65.46,66.746a1,1,0,0,0,1.419,0l4.015-4.014a1,1,0,1,0-1.42-1.42l-3.3,3.3-1.3-1.3a1,1,0,0,0-1.419,1.419Z" fill="#fff"/>
    <path id="Trazado_187990" data-name="Trazado 187990" d="M47.971,57H60.148a1,1,0,0,0,0-2.007H47.971a1,1,0,1,0,0,2.007" fill="#fff"/>
    <path id="Trazado_187991" data-name="Trazado 187991" d="M47.971,48.975H60.148a1,1,0,0,0,0-2.007H47.971a1,1,0,1,0,0,2.007" fill="#fff"/>
    <path id="Trazado_187992" data-name="Trazado 187992" d="M60.148,63.025H47.971a1,1,0,0,0,0,2.007H60.148a1,1,0,1,0,0-2.007" fill="#fff"/>
    <path id="Trazado_187993" data-name="Trazado 187993" d="M82.227,23.752h-17.3a7.012,7.012,0,0,0-9.824,0H37.8a5.024,5.024,0,0,0-5.018,5.018V71.188a1,1,0,0,0,2.007,0V28.77A3.014,3.014,0,0,1,37.8,25.759H53.669a6.954,6.954,0,0,0-.607,2.007H37.8a1,1,0,0,0-1,1V74.2H25.759a1,1,0,0,0-1,1,7.033,7.033,0,0,0,7.025,7.025h1v3.011A5.019,5.019,0,0,0,37.8,90.256H82.227a5.024,5.024,0,0,0,5.018-5.018V28.77a5.024,5.024,0,0,0-5.018-5.018M53.993,33.787a1,1,0,0,0,1-1V28.77a5.018,5.018,0,0,1,10.036,0v4.015a1,1,0,0,0,1,1h2.007a3.016,3.016,0,0,1,2.839,2.008H49.147a3.015,3.015,0,0,1,2.839-2.008Zm-1-4.014V31.78h-1A5.024,5.024,0,0,0,46.968,36.8a1,1,0,0,0,1,1H72.058a1,1,0,0,0,1-1,5.024,5.024,0,0,0-5.018-5.018h-1V29.773H81.224V75.2a5.018,5.018,0,0,1-10.036,0,1,1,0,0,0-1-1H38.806V29.773ZM31.78,80.22a5.026,5.026,0,0,1-4.917-4.014H69.252a6.992,6.992,0,0,0,2.042,4.014Zm53.458,5.018a3.015,3.015,0,0,1-3.011,3.011H37.8a3.011,3.011,0,0,1-3.011-3.011V82.227H76.206A7.025,7.025,0,0,0,83.231,75.2V28.77a1,1,0,0,0-1-1H66.968a6.931,6.931,0,0,0-.6-2.007H82.227a3.014,3.014,0,0,1,3.011,3.011Z" fill="#fff"/>
    <path id="Trazado_187994" data-name="Trazado 187994" d="M60.015,31.781a3.015,3.015,0,1,0-2.128-.883,3.015,3.015,0,0,0,2.128.883m-.71-3.721a1,1,0,1,1-.294.71A1,1,0,0,1,59.305,28.06Z" fill="#fff"/>
  </g>
</svg>
