<svg id="Grupo_146199" data-name="Grupo 146199" xmlns="http://www.w3.org/2000/svg" xmlns:xlink="http://www.w3.org/1999/xlink" width="96.734" height="100.069" viewBox="0 0 96.734 100.069">
  <defs>
    <clipPath id="clip-path">
      <rect id="Rectángulo_39362" data-name="Rectángulo 39362" width="96.734" height="100.069" fill="none"/>
    </clipPath>
  </defs>
  <g id="Grupo_146198" data-name="Grupo 146198" clip-path="url(#clip-path)">
    <path id="Trazado_188436" data-name="Trazado 188436" d="M48.367,100.069A1.668,1.668,0,0,1,46.7,98.4V1.667a1.668,1.668,0,0,1,3.336,0V98.4a1.668,1.668,0,0,1-1.668,1.668" fill="#09394c"/>
    <path id="Trazado_188437" data-name="Trazado 188437" d="M48.367,76.719a5,5,0,1,1-5,5,5,5,0,0,1,5-5" fill="#fcb544"/>
    <path id="Trazado_188438" data-name="Trazado 188438" d="M48.367,55.038a5,5,0,1,1-5,5,5,5,0,0,1,5-5" fill="#4dd0e1"/>
    <path id="Trazado_188439" data-name="Trazado 188439" d="M48.367,33.356a5,5,0,1,1-5,5,5,5,0,0,1,5-5" fill="#ffca28"/>
    <path id="Trazado_188440" data-name="Trazado 188440" d="M48.367,11.674a5,5,0,1,1-5,5,5,5,0,0,1,5-5" fill="#1565c0"/>
    <path id="Trazado_188441" data-name="Trazado 188441" d="M93.4,30.021H66.559a3.336,3.336,0,0,1-2.511-1.139L53.37,16.678l10.674-12.2a3.335,3.335,0,0,1,2.515-1.139H93.4a3.336,3.336,0,0,1,3.336,3.335V26.685A3.336,3.336,0,0,1,93.4,30.021" fill="#1565c0"/>
    <path id="Trazado_188442" data-name="Trazado 188442" d="M93.4,73.384H66.559a3.336,3.336,0,0,1-2.511-1.139L53.37,60.041l10.674-12.2A3.335,3.335,0,0,1,66.559,46.7H93.4a3.336,3.336,0,0,1,3.336,3.335V70.048A3.336,3.336,0,0,1,93.4,73.384" fill="#4dd0e1"/>
    <path id="Trazado_188443" data-name="Trazado 188443" d="M3.336,51.7H30.175a3.336,3.336,0,0,0,2.511-1.139l10.678-12.2L32.69,26.156a3.335,3.335,0,0,0-2.515-1.139H3.336A3.336,3.336,0,0,0,0,28.352V48.366A3.336,3.336,0,0,0,3.336,51.7Z" fill="#ffca28"/>
    <path id="Trazado_188444" data-name="Trazado 188444" d="M3.336,95.066H30.175a3.336,3.336,0,0,0,2.511-1.139L43.364,81.722,32.69,69.52a3.332,3.332,0,0,0-2.515-1.139H3.336A3.335,3.335,0,0,0,0,71.715V91.73A3.336,3.336,0,0,0,3.336,95.066Z" fill="#fcb544"/>
    <path id="Trazado_188445" data-name="Trazado 188445" d="M70.049,15.01H68.38a1.668,1.668,0,0,1,0-3.336h1.669a1.668,1.668,0,0,1,0,3.336" fill="#fff"/>
    <path id="Trazado_188446" data-name="Trazado 188446" d="M90.062,15.01H76.719a1.668,1.668,0,0,1,0-3.336H90.062a1.668,1.668,0,1,1,0,3.336" fill="#fff"/>
    <path id="Trazado_188447" data-name="Trazado 188447" d="M81.723,21.681H68.38a1.668,1.668,0,0,1,0-3.336H81.723a1.668,1.668,0,0,1,0,3.336" fill="#fff"/>
    <path id="Trazado_188448" data-name="Trazado 188448" d="M70.049,58.373H68.38a1.668,1.668,0,0,1,0-3.336h1.669a1.668,1.668,0,0,1,0,3.336" fill="#fff"/>
    <path id="Trazado_188449" data-name="Trazado 188449" d="M90.062,58.373H76.719a1.668,1.668,0,0,1,0-3.336H90.062a1.668,1.668,0,1,1,0,3.336" fill="#fff"/>
    <path id="Trazado_188450" data-name="Trazado 188450" d="M81.723,65.045H68.38a1.668,1.668,0,0,1,0-3.336H81.723a1.668,1.668,0,0,1,0,3.336" fill="#fff"/>
    <path id="Trazado_188451" data-name="Trazado 188451" d="M8.339,36.692H6.671a1.668,1.668,0,0,1,0-3.336H8.339a1.668,1.668,0,0,1,0,3.336" fill="#fff"/>
    <path id="Trazado_188452" data-name="Trazado 188452" d="M28.353,36.692H15.01a1.668,1.668,0,0,1,0-3.336H28.353a1.668,1.668,0,0,1,0,3.336" fill="#fff"/>
    <path id="Trazado_188453" data-name="Trazado 188453" d="M20.014,43.363H6.671a1.668,1.668,0,0,1,0-3.336H20.014a1.668,1.668,0,0,1,0,3.336" fill="#fff"/>
    <path id="Trazado_188454" data-name="Trazado 188454" d="M8.339,80.055H6.671a1.668,1.668,0,1,1,0-3.336H8.339a1.668,1.668,0,1,1,0,3.336" fill="#fff"/>
    <path id="Trazado_188455" data-name="Trazado 188455" d="M28.353,80.055H15.01a1.668,1.668,0,0,1,0-3.336H28.353a1.668,1.668,0,1,1,0,3.336" fill="#fff"/>
    <path id="Trazado_188456" data-name="Trazado 188456" d="M20.014,86.726H6.671a1.668,1.668,0,0,1,0-3.336H20.014a1.668,1.668,0,1,1,0,3.336" fill="#fff"/>
  </g>
</svg>
